<svg width="40" height="41" viewBox="0 0 40 41" fill="none" xmlns="http://www.w3.org/2000/svg">
<ellipse cx="20" cy="20.0978" rx="20" ry="20.0011" fill="#37B5AB"/>
<path d="M26.6022 17.6995C27.1243 16.5301 26.9064 15.1104 25.9469 14.1509C24.9874 13.1913 23.5678 12.9734 22.3985 13.4955L21.0007 12.0977L12 21.0989L13.3978 22.4968C12.8756 23.6662 13.0936 25.0859 14.0531 26.0454C15.0126 27.005 16.4321 27.2229 17.6015 26.7008L18.9993 28.0987L28 19.0974L26.6022 17.6995ZM18.1597 20.9375C17.7238 21.3735 17.017 21.3735 16.5811 20.9375C16.1452 20.5016 16.1452 19.7947 16.5811 19.3588C17.017 18.9228 17.7238 18.9228 18.1597 19.3588C18.5957 19.7947 18.5957 20.5016 18.1597 20.9375ZM19.8776 23.8693L19.0848 16.4376L20.1223 16.3269L20.9151 23.7586L19.8776 23.8693ZM23.4252 20.8438C22.9892 21.2798 22.2825 21.2798 21.8465 20.8438C21.4106 20.4079 21.4106 19.701 21.8465 19.2651C22.2825 18.8291 22.9892 18.8291 23.4252 19.2651C23.8611 19.701 23.8611 20.4079 23.4252 20.8438Z" fill="white"/>
<path d="M21.1992 14.498L24.4641 20.2337L17.3748 26.7069L13.599 22.5713L21.1992 14.498Z" fill="white"/>
</svg>
