<svg width="40" height="41" viewBox="0 0 40 41" fill="none" xmlns="http://www.w3.org/2000/svg">
<ellipse cx="20" cy="20.1202" rx="20" ry="20.0011" fill="#89D7C5"/>
<path d="M28.7315 26.1923L27.8966 26.6475C26.0486 27.64 23.861 27.6396 22.0132 26.6465L20.9141 26.0474V13.3916L21.632 13.783C23.7193 14.9051 26.1903 14.9054 28.2779 13.7838C28.4304 13.7 28.6134 13.7061 28.7605 13.8001C28.9076 13.8941 28.9975 14.0622 28.9975 14.2434V25.732C28.998 25.9258 28.8953 26.1037 28.7315 26.1923Z" fill="white"/>
<path d="M13.0991 26.6465L12.2658 26.1923C12.1022 26.1037 11.9995 25.9258 12 25.732V14.2434C12 14.0625 12.0895 13.8946 12.2362 13.8006C12.3828 13.7065 12.5654 13.6998 12.7179 13.783C14.8052 14.9051 17.2764 14.9054 19.3638 13.7838L20.0834 13.3916V26.0474L18.9825 26.6475C17.1345 27.64 14.947 27.6396 13.0991 26.6465Z" fill="white"/>
</svg>
