<svg width="45" height="10" viewBox="0 0 45 10" fill="none" xmlns="http://www.w3.org/2000/svg">
<path d="M41.2013 1.23589H44.839C44.9474 1.23589 45.0008 1.19461 45.0008 1.08739C45.0008 0.955932 45.0008 0.514991 45.0008 0.383612C45.0008 0.271997 44.9544 0.235352 44.839 0.235352C41.7337 0.235352 38.6284 0.235352 35.523 0.235352C35.4077 0.235352 35.3613 0.271917 35.3613 0.383612C35.3613 0.514991 35.3613 0.955932 35.3613 1.08739C35.3613 1.19453 35.4147 1.23589 35.523 1.23589H39.1609V9.55777C39.1613 9.68011 39.2385 9.729 39.3424 9.729C39.9014 9.729 40.4606 9.729 41.0196 9.729C41.1236 9.729 41.2008 9.68011 41.2011 9.55777L41.2012 1.23589H41.2013Z" fill="#3F4A4F"/>
<path d="M35.0563 8.87687C35.0563 9.00833 35.0563 9.44928 35.0563 9.58065C35.0563 9.69227 35.01 9.72891 34.8946 9.72891C32.3176 9.72891 29.7406 9.72891 27.1637 9.72891C27.0489 9.72891 26.9648 9.68211 26.9648 9.55169C26.9648 6.50534 26.9648 3.45892 26.9648 0.412576C26.9648 0.282158 27.0489 0.235352 27.1637 0.235352C27.6471 0.235352 28.3403 0.235352 28.8237 0.235352C28.928 0.235352 29.0053 0.284478 29.0053 0.407616C29.0053 3.28442 29.0053 5.85173 29.0053 8.72853C30.9684 8.72853 32.9315 8.72853 34.8946 8.72853C35.0029 8.72853 35.0563 8.76982 35.0563 8.87703V8.87687Z" fill="#3F4A4F"/>
<path d="M18.3559 10.0002C15.4614 10.0002 13.5273 8.76582 13.5273 5.91478C13.5273 4.13245 13.5273 2.1949 13.5273 0.412576C13.5273 0.282158 13.6114 0.235352 13.7262 0.235352C14.2096 0.235352 14.9028 0.235352 15.3862 0.235352C15.4905 0.235352 15.5678 0.284478 15.5678 0.407616V5.93287C15.5678 7.87482 16.2508 9.05482 18.3558 9.05482C20.4608 9.05482 21.1438 7.87514 21.1438 5.93287V0.407616C21.1438 0.284478 21.2211 0.235352 21.3254 0.235352C21.8088 0.235352 22.502 0.235352 22.9854 0.235352C23.1002 0.235352 23.1842 0.282158 23.1842 0.412576C23.1842 2.1949 23.1842 4.13245 23.1842 5.91478C23.1842 8.72485 21.2501 10.0002 18.3557 10.0002H18.3559Z" fill="#3F4A4F"/>
<path d="M6.23104 9.01438C7.54331 9.05462 8.68805 8.57695 9.57668 7.80837C9.67356 7.71875 9.75177 7.74572 9.81984 7.81125L10.2426 8.22723C10.3165 8.29844 10.3431 8.36573 10.2409 8.46422C9.18849 9.48716 7.59951 9.99995 6.09032 9.99995C2.76626 9.99995 0.00929807 8.1541 0 4.99998C0.00929807 1.84586 2.76618 0 6.09032 0C7.6074 0 9.1967 0.509991 10.249 1.54366C10.3382 1.63119 10.3473 1.67287 10.2511 1.76553L9.8626 2.1627C9.80116 2.22183 9.71076 2.25895 9.61902 2.17054C8.72566 1.37067 7.5448 0.945332 6.23112 0.985657C3.64559 1.06511 2.12992 2.67485 2.12403 4.99998C2.12992 7.32518 3.64559 8.93524 6.23112 9.01446L6.23104 9.01438Z" fill="#3F4A4F"/>
</svg>
