<svg width="187" height="28" viewBox="0 0 187 28" fill="none" xmlns="http://www.w3.org/2000/svg">
<path d="M138.503 19.6223C138.562 19.6223 138.62 19.6786 138.62 19.7348V22.04C138.62 22.0962 138.562 22.1524 138.503 22.1524H137.746C137.687 22.1524 137.629 22.0962 137.629 22.04V20.5219H133.374V22.04C133.374 22.0962 133.315 22.1524 133.257 22.1524H132.499C132.441 22.1524 132.383 22.0962 132.383 22.04V19.7348C132.383 19.6786 132.441 19.6223 132.499 19.6223H132.966L133.374 18.779C133.549 18.4416 133.607 17.9918 133.607 17.4858V14.6183C133.607 14.5621 133.665 14.5059 133.724 14.5059H137.804C137.862 14.5059 137.921 14.5621 137.921 14.6183V19.6223H138.503ZM134.656 17.4858C134.656 18.2167 134.54 18.7227 134.306 19.1725L134.073 19.6223H136.871V15.3492H134.656V17.4858Z" fill="#11316E"/>
<path d="M145.5 17.4859C145.5 19.3976 144.45 20.5783 142.818 20.5783C141.128 20.5783 140.137 19.3976 140.137 17.4859C140.137 15.5743 141.186 14.3936 142.818 14.3936C144.509 14.3936 145.5 15.5743 145.5 17.4859ZM141.128 17.4859C141.128 18.8353 141.769 19.6787 142.818 19.6787C143.867 19.6787 144.509 18.8353 144.509 17.4859C144.509 16.0803 143.867 15.2932 142.818 15.2932C141.769 15.2932 141.128 16.0803 141.128 17.4859Z" fill="#11316E"/>
<path d="M152.552 20.4657C152.494 20.4657 152.436 20.4095 152.436 20.3533V17.5982C152.436 17.0922 152.436 16.4175 152.494 15.9677C152.494 15.8553 152.436 15.8553 152.377 15.9677C152.261 16.1926 152.202 16.4175 152.086 16.6424L151.27 18.5541C151.153 18.779 151.037 19.1163 150.978 19.3974C150.978 19.4537 150.92 19.4536 150.862 19.4536H150.104C150.046 19.4536 149.987 19.4537 149.987 19.3974C149.871 19.1163 149.754 18.779 149.696 18.5541L148.88 16.6424C148.763 16.4175 148.705 16.1926 148.588 15.9677C148.53 15.8553 148.472 15.8553 148.472 15.9677C148.53 16.4737 148.588 17.0922 148.588 17.5982V20.3533C148.588 20.4095 148.53 20.4657 148.472 20.4657H147.656C147.597 20.4657 147.539 20.4095 147.539 20.3533V14.6183C147.539 14.5621 147.597 14.5059 147.656 14.5059H148.88C148.938 14.5059 148.996 14.5059 148.996 14.5621C149.055 14.787 149.113 15.0119 149.23 15.1806L150.104 17.2609C150.22 17.542 150.337 17.9356 150.454 18.2729C150.454 18.3854 150.57 18.3854 150.57 18.2729C150.687 17.9918 150.803 17.5982 150.92 17.2609L151.794 15.2368C151.911 15.0119 151.969 14.787 152.028 14.6183C152.028 14.5621 152.086 14.5621 152.144 14.5621H153.368C153.427 14.5621 153.485 14.6183 153.485 14.6745V20.4657C153.485 20.5219 153.427 20.5781 153.368 20.5781H152.552V20.4657Z" fill="#11316E"/>
<path d="M159.487 20.3534C159.02 20.5221 158.671 20.5783 158.146 20.5783C156.455 20.5783 155.406 19.3976 155.406 17.4859C155.406 15.5743 156.455 14.3936 158.146 14.3936C158.671 14.3936 158.962 14.4498 159.428 14.6185L159.836 14.7309C159.895 14.7309 159.895 14.7871 159.895 14.8434L159.662 15.5181C159.662 15.5743 159.603 15.5743 159.545 15.5743L159.137 15.4618C158.845 15.3494 158.554 15.3494 158.146 15.2932C157.097 15.2932 156.455 16.0803 156.455 17.4859C156.455 18.8915 157.097 19.6787 158.146 19.6787C158.554 19.6787 158.787 19.6225 159.137 19.51L159.545 19.3976C159.603 19.3976 159.662 19.3976 159.662 19.4538L159.895 20.0723C159.895 20.1285 159.895 20.1847 159.836 20.1847L159.487 20.3534Z" fill="#11316E"/>
<path d="M164.211 20.4095C164.211 20.4657 164.153 20.5219 164.094 20.5219H163.278C163.22 20.5219 163.162 20.4657 163.162 20.4095V15.4055H161.296C161.238 15.4055 161.18 15.3492 161.18 15.293V14.6183C161.18 14.5621 161.238 14.5059 161.296 14.5059H166.076C166.134 14.5059 166.193 14.5621 166.193 14.6183V15.293C166.193 15.3492 166.134 15.4055 166.076 15.4055H164.211V20.4095Z" fill="#11316E"/>
<path d="M170.449 14.5059C171.789 14.5059 172.605 15.2368 172.605 16.4175C172.605 17.7107 171.731 18.3854 170.041 18.3854H169.108V20.4095C169.108 20.4657 169.05 20.5219 168.991 20.5219H168.175C168.117 20.5219 168.059 20.4657 168.059 20.4095V14.6183C168.059 14.5621 168.117 14.5059 168.175 14.5059H170.449ZM170.041 17.542C171.032 17.542 171.556 17.1484 171.556 16.4175C171.556 15.7428 171.148 15.4055 170.449 15.4055H169.108V17.542H170.041Z" fill="#11316E"/>
<path d="M179.425 17.4859C179.425 19.3976 178.376 20.5783 176.744 20.5783C175.053 20.5783 174.062 19.3976 174.062 17.4859C174.062 15.5743 175.112 14.3936 176.744 14.3936C178.376 14.3936 179.425 15.5743 179.425 17.4859ZM175.053 17.4859C175.053 18.8353 175.695 19.6787 176.744 19.6787C177.793 19.6787 178.434 18.8353 178.434 17.4859C178.434 16.0803 177.793 15.2932 176.744 15.2932C175.695 15.2932 175.053 16.0803 175.053 17.4859Z" fill="#11316E"/>
<path d="M185.369 20.4655C185.311 20.4655 185.253 20.4093 185.253 20.3531V17.092C185.253 16.6422 185.253 16.3049 185.311 15.9113C185.311 15.7988 185.253 15.7426 185.194 15.8551C185.078 16.0237 185.019 16.2486 184.903 16.4173L182.979 19.4535C182.804 19.7346 182.629 20.0157 182.513 20.3531C182.513 20.4093 182.455 20.4093 182.396 20.4093H181.347C181.289 20.4093 181.23 20.3531 181.23 20.2968V14.6181C181.23 14.5619 181.289 14.5057 181.347 14.5057H182.163C182.221 14.5057 182.28 14.5619 182.28 14.6181V17.8229C182.28 18.2727 182.28 18.6101 182.221 19.0037C182.221 19.1161 182.28 19.1161 182.338 19.0599C182.455 18.8912 182.513 18.6663 182.629 18.4976L184.553 15.4615C184.728 15.1804 184.903 14.843 185.019 14.5619C185.019 14.5057 185.078 14.5057 185.136 14.5057H186.185C186.244 14.5057 186.302 14.5619 186.302 14.6181V20.4093C186.302 20.4655 186.244 20.5217 186.185 20.5217H185.369V20.4655ZM185.019 12.9876C185.019 13.6623 184.611 13.9434 183.795 13.9434C182.979 13.9434 182.571 13.6623 182.571 12.9876V12.8751C182.571 12.8189 182.629 12.7627 182.688 12.7627H183.271C183.329 12.7627 183.387 12.8189 183.387 12.8751V12.9314C183.387 13.1563 183.504 13.2687 183.854 13.2687C184.145 13.2687 184.32 13.1563 184.32 12.9314V12.8751C184.32 12.8189 184.378 12.7627 184.437 12.7627H185.019C185.078 12.7627 185.136 12.8189 185.136 12.8751V12.9876H185.019Z" fill="#11316E"/>
<path d="M125.733 6.01562H124.801V20.6341H125.733V6.01562Z" fill="#11316E"/>
<path d="M57.6503 6.01562L63.6544 20.5779H60.2151L58.9327 17.2606H52.7538L51.4714 20.5779H48.207L54.2111 6.01562H57.6503ZM58.0583 14.8992L55.8433 8.93932H55.785L53.6865 14.8992H58.0583Z" fill="#27337B"/>
<path d="M75.7205 20.1288C74.3798 20.5786 73.0391 20.7473 71.815 20.7473C68.0843 20.7473 64.0039 18.6669 64.0039 13.3818C64.0039 8.37778 67.6763 5.84766 72.3979 5.84766C73.5638 5.84766 74.613 6.01633 75.7205 6.35368L75.604 8.82758C74.7296 8.49023 73.7386 8.26533 72.6311 8.26533C69.2502 8.26533 67.2682 10.3456 67.2682 13.3256C67.2682 16.8677 69.7165 18.2734 72.4562 18.2734C73.7969 18.2734 74.8462 17.936 75.604 17.6549L75.7205 20.1288Z" fill="#27337B"/>
<path d="M90.5859 6.01562V20.6341H87.4965V8.4333H81.5507V20.6341H78.5195V6.01562H90.5859Z" fill="#27337B"/>
<path d="M95.6586 11.9194H101.954C101.721 10.5138 100.73 8.26477 96.941 8.26477C95.8918 8.26477 94.7259 8.43344 93.6767 8.82702L93.4435 6.52179C94.6093 6.12822 96.0083 5.90332 97.5822 5.90332C102.071 5.90332 105.16 8.60212 105.16 13.1563C105.16 17.823 102.246 20.8591 97.1159 20.8591C95.7752 20.8591 94.4928 20.6342 93.0938 20.1844L93.4435 17.7106C95.0174 18.3853 96.4164 18.4415 97.2325 18.4415C100.322 18.4415 101.896 16.5861 101.896 14.3371H95.6003V11.9194H95.6586Z" fill="#27337B"/>
<path d="M110.523 6.01562V12.2566H110.581L116.002 6.01562H119.675L113.379 12.6502L120.025 20.6341H116.177L110.581 13.3811H110.523V20.6341H107.434V6.01562H110.523Z" fill="#27337B"/>
<path d="M33.7509 22.9957C33.2263 22.4334 18.3619 4.94748 18.3619 4.94748C18.3619 4.94748 18.3619 4.94748 18.3036 4.89126C16.0885 2.24869 13.9317 0.618164 9.50156 0.618164C9.32668 0.618164 9.09352 0.618164 8.91864 0.618164H0.408042L0 1.63021H7.51964C10.5508 1.63021 13.5237 2.86716 15.4473 5.17238C15.5056 5.22861 16.38 6.29688 17.779 7.9274C8.74377 10.9635 5.77089 16.08 5.77089 17.5419C5.77089 20.3531 11.5418 27.6623 21.976 27.6623C26.2313 27.6623 28.8544 26.5378 29.9037 25.9194L30.4283 24.6824C29.4956 24.7387 26.5228 25.1884 22.1509 23.9515C18.2453 22.827 15.0393 19.7909 15.0976 17.7668C15.1559 15.9113 17.3709 13.6623 21.0433 11.6945C25.8815 17.3732 32.0605 24.6262 32.0605 24.6262C33.9258 26.7627 36.6072 27.9435 39.9299 27.9435C39.3469 27.7748 38.4726 27.4374 37.0153 26.3692C36.2575 25.8631 34.7419 24.1764 33.7509 22.9957ZM38.5892 22.9957C38.0645 22.4334 23.2001 4.94748 23.2001 4.94748C23.2001 4.94748 23.2001 4.94748 23.1418 4.89126C20.7519 2.24869 18.8865 0.618164 14.6895 0.618164C14.3398 0.618164 13.9317 0.618164 13.5237 0.674389C16.5549 1.06796 18.1287 2.75471 20.0524 4.94748C20.2855 5.11616 36.1409 23.7266 36.1409 23.7266C37.4816 25.3009 38.7057 26.4254 40.6294 27.325C41.7369 27.831 42.9027 27.9435 44.0686 27.9435C44.1269 27.9435 44.8847 27.9997 44.943 27.9997C44.2435 27.8872 42.7279 27.1001 41.8535 26.3692C41.154 25.8069 39.6384 24.1764 38.5892 22.9957ZM51.1219 27.325C48.557 27.325 46.75 26.5941 43.4274 23.0519C43.0193 22.6583 35.3248 13.5499 30.9529 8.43343C34.9751 7.7025 37.4233 7.59005 37.4816 7.59005C37.6565 7.14025 37.7148 6.91535 37.7731 6.8029C37.7731 6.8029 34.159 6.01575 28.9127 6.1282C28.3298 5.39728 27.9801 5.00371 27.9801 5.00371C27.9801 5.00371 27.9801 5.00371 27.9218 4.94748C25.5901 1.96756 22.967 0.674389 19.0614 0.674389C18.8282 0.674389 18.5951 0.674389 18.3619 0.674389C21.1599 1.06796 22.967 2.75471 24.8906 4.94748C25.0655 5.11616 40.2796 23.0519 40.2796 23.0519C41.6203 24.6262 43.4274 26.4816 45.4093 27.325C46.5168 27.7748 47.6827 27.9435 48.7902 27.9997C48.8485 27.9997 52.1128 27.9997 52.1128 27.9997L52.4043 27.325H51.1219Z" fill="url(#paint0_radial_3201_24351)"/>
<defs>
<radialGradient id="paint0_radial_3201_24351" cx="0" cy="0" r="1" gradientUnits="userSpaceOnUse" gradientTransform="translate(40.3559 26.898) scale(31.9442 30.8116)">
<stop stop-color="#292E74"/>
<stop offset="0.4691" stop-color="#293175"/>
<stop offset="0.487" stop-color="#293175"/>
<stop offset="0.6594" stop-color="#2F698B"/>
<stop offset="0.8104" stop-color="#33929C"/>
<stop offset="0.9288" stop-color="#36ACA6"/>
<stop offset="1" stop-color="#37B5AA"/>
</radialGradient>
</defs>
</svg>
