<svg width="40" height="41" viewBox="0 0 40 41" fill="none" xmlns="http://www.w3.org/2000/svg">
<ellipse cx="20" cy="20.1085" rx="20" ry="20.0011" fill="#2E78C2"/>
<g clip-path="url(#clip0_1604_23925)">
<path d="M22.5104 28.1094H17.4896C17.2307 28.1094 17.0208 27.8995 17.0208 27.6406V23.0882H12.4688C12.2099 23.0882 12 22.8784 12 22.6195V17.5983C12 17.3394 12.2099 17.1296 12.4688 17.1296H17.0208V12.5772C17.0208 12.3183 17.2307 12.1084 17.4896 12.1084H22.5104C22.7693 12.1084 22.9792 12.3183 22.9792 12.5772V17.1296H27.5312C27.7901 17.1296 28 17.3394 28 17.5983V22.6195C28 22.8784 27.7901 23.0882 27.5312 23.0882H22.9792V27.6406C22.9792 27.8995 22.7693 28.1094 22.5104 28.1094Z" fill="white"/>
</g>
<defs>
<clipPath id="clip0_1604_23925">
<rect width="16" height="16.001" fill="white" transform="translate(12 12.1084)"/>
</clipPath>
</defs>
</svg>
