<svg width="157" height="350" viewBox="0 0 157 350" fill="none" xmlns="http://www.w3.org/2000/svg">
<mask id="path-1-outside-1_1050_15404" maskUnits="userSpaceOnUse" x="-0.253906" y="0.0673828" width="157" height="350" fill="black">
<rect fill="white" x="-0.253906" y="0.0673828" width="157" height="350"/>
<path d="M145.292 184.472L145.046 184.594L144.924 184.472L141.614 181.898H133.523L133.646 181.53L134.136 177.239V177.117V176.994L138.795 171.478L140.143 167.8L137.078 165.717H136.956V161.549L134.382 158.607H134.259L134.382 158.362L135.485 152.723L132.543 150.394L132.175 150.271L132.42 150.026L136.956 145L135.362 123.67L129.969 115.58L132.665 114.231L139.04 108.96L139.162 108.838L139.285 108.96L143.085 109.328L144.433 102.709V102.586L146.272 99.7665L146.763 96.089V95.9665L146.885 95.8439L154.73 89.7147L151.421 85.6694L151.298 85.5468V79.0499L144.433 69.3658L143.453 64.3399L141.369 61.643L141.246 61.5204L141.369 61.3979L141.491 58.5784L137.324 60.6624L132.543 64.3399L125.923 66.3012L123.349 70.7142L123.594 64.3399L136.833 50.6105L144.188 37.3715L147.621 25.4809L137.324 13.8354L127.762 13.4677L124.33 18.2484L120.53 18.9839L123.349 10.7708L115.504 9.79016L118.078 6.11265L113.297 2.06738L109.007 3.78356L102.142 13.958L103.736 20.0872L96.3806 20.5775L96.5032 22.4163L99.2001 26.4615L93.929 25.3583L91.2321 27.9325L85.103 26.8293L84.3675 24.0099L75.664 24.255L75.9092 29.1584L65.4896 30.6294L58.3797 36.2682L52.986 36.3908L48.9408 39.9457L47.2246 47.0556L50.5344 53.1848L45.5084 54.4106L31.9017 52.2041L24.0563 52.0815L21.6046 56.3719L21.3595 67.527L26.2628 72.4304L28.7145 77.9466H21.8498L15.8432 66.9141L11.5528 67.1593V67.7722L15.3529 75.7402L15.4754 76.1079L15.1077 76.2305L11.0625 76.8434L10.2044 81.8693L13.8819 89.8373L14.0045 89.9598L13.0238 93.7599V94.0051H12.7786L3.95258 98.0504L2.84934 102.463L8.61078 110.186L15.1077 111.78H15.3529V112.025L16.8239 120.238L16.4561 121.219L14.127 127.103L14.0045 127.348H13.8819L7.87528 128.941L9.71403 133.232V133.354V133.477L7.75268 139.116L12.5334 145.368L12.656 145.49V145.613L11.4302 156.891L15.2303 162.162L15.3529 162.284V162.407L13.8819 170.497L19.6433 174.788V174.91L19.7659 175.033L20.624 180.794L20.7466 180.917L20.624 181.039L15.598 188.027L15.1077 194.279V194.401H14.9851L7.26236 204.33V212.176L13.6367 215.731L13.7593 215.976V216.098L12.5334 219.04V219.163L12.4108 219.286L6.64944 221.737L1.74609 222.35L3.82999 229.828V229.95V230.073L1.74609 232.647V236.57L17.069 239.022H17.1916V239.144L21.7272 248.338L25.895 248.951H26.1402V249.196L25.895 252.751V252.874H25.7725L19.6433 258.145L20.2562 262.435L23.566 265.867L28.5919 267.461H28.8371V267.829L27.979 270.771V270.893H27.8564L22.3401 275.061L22.095 280.577V280.823L21.3595 284.255L26.1402 293.571V293.816L26.0176 293.939L23.566 296.391L21.4821 297.371L23.9337 304.481H28.4693L33.0049 303.868H33.1275L33.2501 303.991L36.1921 305.83L36.4372 305.952L36.3147 306.197L34.7211 309.507L38.1534 314.778V314.901L39.0115 319.436L40.6051 324.217V324.34L40.8503 327.772V328.017H40.7277L36.805 330.101V333.166V333.288L35.4566 336.23V336.353H35.334L31.1662 337.947L28.8371 342.727L35.5792 347.508L46.7343 348.856L51.5151 344.934V344.811H51.6376L54.2119 344.198L54.3345 341.624V341.501H54.4571L58.3797 338.927L58.1346 336.23L58.012 335.863H58.2572L61.1992 335.127L62.1798 331.204V330.959H62.425L77.135 329.611L77.8705 326.301L69.6574 318.946L69.5348 318.824V315.391L69.6574 315.269L73.3349 313.552H73.4575L78.1157 314.043L78.9738 299.7H79.0964V299.578L82.0384 293.939V293.816H82.161L87.0643 293.081L88.045 289.036L83.019 281.19L82.8964 280.945L83.019 280.823L87.5546 272.364L87.6772 272.119H87.7998L99.2001 271.629L102.265 267.584L102.51 267.216L102.755 267.706L107.045 276.9L109.497 275.919L109.007 270.526V270.403L109.129 270.28L119.917 258.39L120.652 253.732V253.609L126.536 250.912L126.659 251.157L129.233 256.919L134.136 259.861L135.362 255.816V255.693L138.182 252.874L137.078 249.564L134.504 248.828H134.259L134.382 248.583L134.504 245.396L134.627 245.273V245.151L138.427 241.228L137.814 238.041L132.543 236.447H132.42V236.202L130.949 231.421L130.827 231.176L130.949 231.054L133.523 227.621L131.194 223.699L131.072 223.453L131.317 223.208L137.569 219.408L141.124 212.421L140.633 207.027L138.304 203.227L138.182 203.105L138.304 202.859L140.633 197.711L139.407 194.646V194.524L139.162 189.62V189.498L139.407 189.375L143.698 187.414H143.821L148.356 186.433L150.317 184.227L148.724 182.265L145.292 184.472Z"/>
</mask>
<path d="M145.292 184.472L145.046 184.594L144.924 184.472L141.614 181.898H133.523L133.646 181.53L134.136 177.239V177.117V176.994L138.795 171.478L140.143 167.8L137.078 165.717H136.956V161.549L134.382 158.607H134.259L134.382 158.362L135.485 152.723L132.543 150.394L132.175 150.271L132.42 150.026L136.956 145L135.362 123.67L129.969 115.58L132.665 114.231L139.04 108.96L139.162 108.838L139.285 108.96L143.085 109.328L144.433 102.709V102.586L146.272 99.7665L146.763 96.089V95.9665L146.885 95.8439L154.73 89.7147L151.421 85.6694L151.298 85.5468V79.0499L144.433 69.3658L143.453 64.3399L141.369 61.643L141.246 61.5204L141.369 61.3979L141.491 58.5784L137.324 60.6624L132.543 64.3399L125.923 66.3012L123.349 70.7142L123.594 64.3399L136.833 50.6105L144.188 37.3715L147.621 25.4809L137.324 13.8354L127.762 13.4677L124.33 18.2484L120.53 18.9839L123.349 10.7708L115.504 9.79016L118.078 6.11265L113.297 2.06738L109.007 3.78356L102.142 13.958L103.736 20.0872L96.3806 20.5775L96.5032 22.4163L99.2001 26.4615L93.929 25.3583L91.2321 27.9325L85.103 26.8293L84.3675 24.0099L75.664 24.255L75.9092 29.1584L65.4896 30.6294L58.3797 36.2682L52.986 36.3908L48.9408 39.9457L47.2246 47.0556L50.5344 53.1848L45.5084 54.4106L31.9017 52.2041L24.0563 52.0815L21.6046 56.3719L21.3595 67.527L26.2628 72.4304L28.7145 77.9466H21.8498L15.8432 66.9141L11.5528 67.1593V67.7722L15.3529 75.7402L15.4754 76.1079L15.1077 76.2305L11.0625 76.8434L10.2044 81.8693L13.8819 89.8373L14.0045 89.9598L13.0238 93.7599V94.0051H12.7786L3.95258 98.0504L2.84934 102.463L8.61078 110.186L15.1077 111.78H15.3529V112.025L16.8239 120.238L16.4561 121.219L14.127 127.103L14.0045 127.348H13.8819L7.87528 128.941L9.71403 133.232V133.354V133.477L7.75268 139.116L12.5334 145.368L12.656 145.49V145.613L11.4302 156.891L15.2303 162.162L15.3529 162.284V162.407L13.8819 170.497L19.6433 174.788V174.91L19.7659 175.033L20.624 180.794L20.7466 180.917L20.624 181.039L15.598 188.027L15.1077 194.279V194.401H14.9851L7.26236 204.33V212.176L13.6367 215.731L13.7593 215.976V216.098L12.5334 219.04V219.163L12.4108 219.286L6.64944 221.737L1.74609 222.35L3.82999 229.828V229.95V230.073L1.74609 232.647V236.57L17.069 239.022H17.1916V239.144L21.7272 248.338L25.895 248.951H26.1402V249.196L25.895 252.751V252.874H25.7725L19.6433 258.145L20.2562 262.435L23.566 265.867L28.5919 267.461H28.8371V267.829L27.979 270.771V270.893H27.8564L22.3401 275.061L22.095 280.577V280.823L21.3595 284.255L26.1402 293.571V293.816L26.0176 293.939L23.566 296.391L21.4821 297.371L23.9337 304.481H28.4693L33.0049 303.868H33.1275L33.2501 303.991L36.1921 305.83L36.4372 305.952L36.3147 306.197L34.7211 309.507L38.1534 314.778V314.901L39.0115 319.436L40.6051 324.217V324.34L40.8503 327.772V328.017H40.7277L36.805 330.101V333.166V333.288L35.4566 336.23V336.353H35.334L31.1662 337.947L28.8371 342.727L35.5792 347.508L46.7343 348.856L51.5151 344.934V344.811H51.6376L54.2119 344.198L54.3345 341.624V341.501H54.4571L58.3797 338.927L58.1346 336.23L58.012 335.863H58.2572L61.1992 335.127L62.1798 331.204V330.959H62.425L77.135 329.611L77.8705 326.301L69.6574 318.946L69.5348 318.824V315.391L69.6574 315.269L73.3349 313.552H73.4575L78.1157 314.043L78.9738 299.7H79.0964V299.578L82.0384 293.939V293.816H82.161L87.0643 293.081L88.045 289.036L83.019 281.19L82.8964 280.945L83.019 280.823L87.5546 272.364L87.6772 272.119H87.7998L99.2001 271.629L102.265 267.584L102.51 267.216L102.755 267.706L107.045 276.9L109.497 275.919L109.007 270.526V270.403L109.129 270.28L119.917 258.39L120.652 253.732V253.609L126.536 250.912L126.659 251.157L129.233 256.919L134.136 259.861L135.362 255.816V255.693L138.182 252.874L137.078 249.564L134.504 248.828H134.259L134.382 248.583L134.504 245.396L134.627 245.273V245.151L138.427 241.228L137.814 238.041L132.543 236.447H132.42V236.202L130.949 231.421L130.827 231.176L130.949 231.054L133.523 227.621L131.194 223.699L131.072 223.453L131.317 223.208L137.569 219.408L141.124 212.421L140.633 207.027L138.304 203.227L138.182 203.105L138.304 202.859L140.633 197.711L139.407 194.646V194.524L139.162 189.62V189.498L139.407 189.375L143.698 187.414H143.821L148.356 186.433L150.317 184.227L148.724 182.265L145.292 184.472Z" fill="#DFDFDF"/>
<path d="M145.292 184.472L145.046 184.594L144.924 184.472L141.614 181.898H133.523L133.646 181.53L134.136 177.239V177.117V176.994L138.795 171.478L140.143 167.8L137.078 165.717H136.956V161.549L134.382 158.607H134.259L134.382 158.362L135.485 152.723L132.543 150.394L132.175 150.271L132.42 150.026L136.956 145L135.362 123.67L129.969 115.58L132.665 114.231L139.04 108.96L139.162 108.838L139.285 108.96L143.085 109.328L144.433 102.709V102.586L146.272 99.7665L146.763 96.089V95.9665L146.885 95.8439L154.73 89.7147L151.421 85.6694L151.298 85.5468V79.0499L144.433 69.3658L143.453 64.3399L141.369 61.643L141.246 61.5204L141.369 61.3979L141.491 58.5784L137.324 60.6624L132.543 64.3399L125.923 66.3012L123.349 70.7142L123.594 64.3399L136.833 50.6105L144.188 37.3715L147.621 25.4809L137.324 13.8354L127.762 13.4677L124.33 18.2484L120.53 18.9839L123.349 10.7708L115.504 9.79016L118.078 6.11265L113.297 2.06738L109.007 3.78356L102.142 13.958L103.736 20.0872L96.3806 20.5775L96.5032 22.4163L99.2001 26.4615L93.929 25.3583L91.2321 27.9325L85.103 26.8293L84.3675 24.0099L75.664 24.255L75.9092 29.1584L65.4896 30.6294L58.3797 36.2682L52.986 36.3908L48.9408 39.9457L47.2246 47.0556L50.5344 53.1848L45.5084 54.4106L31.9017 52.2041L24.0563 52.0815L21.6046 56.3719L21.3595 67.527L26.2628 72.4304L28.7145 77.9466H21.8498L15.8432 66.9141L11.5528 67.1593V67.7722L15.3529 75.7402L15.4754 76.1079L15.1077 76.2305L11.0625 76.8434L10.2044 81.8693L13.8819 89.8373L14.0045 89.9598L13.0238 93.7599V94.0051H12.7786L3.95258 98.0504L2.84934 102.463L8.61078 110.186L15.1077 111.78H15.3529V112.025L16.8239 120.238L16.4561 121.219L14.127 127.103L14.0045 127.348H13.8819L7.87528 128.941L9.71403 133.232V133.354V133.477L7.75268 139.116L12.5334 145.368L12.656 145.49V145.613L11.4302 156.891L15.2303 162.162L15.3529 162.284V162.407L13.8819 170.497L19.6433 174.788V174.91L19.7659 175.033L20.624 180.794L20.7466 180.917L20.624 181.039L15.598 188.027L15.1077 194.279V194.401H14.9851L7.26236 204.33V212.176L13.6367 215.731L13.7593 215.976V216.098L12.5334 219.04V219.163L12.4108 219.286L6.64944 221.737L1.74609 222.35L3.82999 229.828V229.95V230.073L1.74609 232.647V236.57L17.069 239.022H17.1916V239.144L21.7272 248.338L25.895 248.951H26.1402V249.196L25.895 252.751V252.874H25.7725L19.6433 258.145L20.2562 262.435L23.566 265.867L28.5919 267.461H28.8371V267.829L27.979 270.771V270.893H27.8564L22.3401 275.061L22.095 280.577V280.823L21.3595 284.255L26.1402 293.571V293.816L26.0176 293.939L23.566 296.391L21.4821 297.371L23.9337 304.481H28.4693L33.0049 303.868H33.1275L33.2501 303.991L36.1921 305.83L36.4372 305.952L36.3147 306.197L34.7211 309.507L38.1534 314.778V314.901L39.0115 319.436L40.6051 324.217V324.34L40.8503 327.772V328.017H40.7277L36.805 330.101V333.166V333.288L35.4566 336.23V336.353H35.334L31.1662 337.947L28.8371 342.727L35.5792 347.508L46.7343 348.856L51.5151 344.934V344.811H51.6376L54.2119 344.198L54.3345 341.624V341.501H54.4571L58.3797 338.927L58.1346 336.23L58.012 335.863H58.2572L61.1992 335.127L62.1798 331.204V330.959H62.425L77.135 329.611L77.8705 326.301L69.6574 318.946L69.5348 318.824V315.391L69.6574 315.269L73.3349 313.552H73.4575L78.1157 314.043L78.9738 299.7H79.0964V299.578L82.0384 293.939V293.816H82.161L87.0643 293.081L88.045 289.036L83.019 281.19L82.8964 280.945L83.019 280.823L87.5546 272.364L87.6772 272.119H87.7998L99.2001 271.629L102.265 267.584L102.51 267.216L102.755 267.706L107.045 276.9L109.497 275.919L109.007 270.526V270.403L109.129 270.28L119.917 258.39L120.652 253.732V253.609L126.536 250.912L126.659 251.157L129.233 256.919L134.136 259.861L135.362 255.816V255.693L138.182 252.874L137.078 249.564L134.504 248.828H134.259L134.382 248.583L134.504 245.396L134.627 245.273V245.151L138.427 241.228L137.814 238.041L132.543 236.447H132.42V236.202L130.949 231.421L130.827 231.176L130.949 231.054L133.523 227.621L131.194 223.699L131.072 223.453L131.317 223.208L137.569 219.408L141.124 212.421L140.633 207.027L138.304 203.227L138.182 203.105L138.304 202.859L140.633 197.711L139.407 194.646V194.524L139.162 189.62V189.498L139.407 189.375L143.698 187.414H143.821L148.356 186.433L150.317 184.227L148.724 182.265L145.292 184.472Z" stroke="#E9E9E9" stroke-opacity="0.8" stroke-width="2" mask="url(#path-1-outside-1_1050_15404)"/>
</svg>
