<svg width="40" height="41" viewBox="0 0 40 41" fill="none" xmlns="http://www.w3.org/2000/svg">
<ellipse cx="20" cy="20.1154" rx="20" ry="20.0011" fill="#E7BE27"/>
<path d="M28.8462 16.6417C28.7879 16.5732 28.7153 16.5181 28.6333 16.4804C28.5514 16.4426 28.4621 16.4231 28.3718 16.4232H25.5812L25.5564 16.2478C25.3882 15.1013 24.8102 14.053 23.9279 13.2944C23.0456 12.5357 21.9178 12.1172 20.7504 12.1152H19.5101C18.3483 12.1188 17.227 12.539 16.3529 13.2985C15.4787 14.0579 14.9108 15.1054 14.7537 16.2478L14.7289 16.4232H11.6282C11.5379 16.4231 11.4486 16.4426 11.3667 16.4804C11.2847 16.5181 11.2121 16.5732 11.1538 16.6417C11.0935 16.7099 11.0492 16.7905 11.024 16.8778C10.9988 16.965 10.9934 17.0567 11.0081 17.1463L12.6607 26.47C12.7453 26.9336 12.9919 27.3528 13.3571 27.6539C13.7223 27.955 14.1828 28.1187 14.6576 28.1162H25.3424C25.8161 28.1164 26.2747 27.9513 26.638 27.6497C27.0014 27.3482 27.2463 26.9295 27.33 26.4669L28.9919 17.1463C29.0066 17.0567 29.0012 16.965 28.976 16.8778C28.9508 16.7905 28.9065 16.7099 28.8462 16.6417ZM16.2792 16.4232L16.3009 16.297C16.4401 15.5536 16.8374 14.8821 17.4236 14.3992C18.0099 13.9163 18.7482 13.6526 19.5101 13.6538H20.7504C21.5174 13.6525 22.2612 13.9152 22.8548 14.3972C23.4485 14.8792 23.8554 15.5506 24.0061 16.297L24.0309 16.4232H16.2792Z" fill="white"/>
</svg>
