<svg width="40" height="41" viewBox="0 0 40 41" fill="none" xmlns="http://www.w3.org/2000/svg">
<ellipse cx="20" cy="20.1036" rx="20" ry="20.0011" fill="#73B1EE"/>
<g clip-path="url(#clip0_1604_23961)">
<path d="M17.2578 20.8789L20.7733 17.3632L22.7387 19.3287L19.2232 22.8444L17.2578 20.8789Z" fill="white"/>
<path d="M15.8578 20.8085C15.6355 20.5863 15.34 20.4639 15.0257 20.4639C14.7114 20.4639 14.4159 20.5863 14.1937 20.8085L12.3441 22.6581C11.8853 23.1169 11.8853 23.8634 12.3441 24.3222L15.7815 27.7597C16.0038 27.9819 16.2993 28.1043 16.6136 28.1043C16.9279 28.1043 17.2234 27.9819 17.4456 27.7596L19.2952 25.91C19.754 25.4512 19.754 24.7047 19.2952 24.2459L15.8578 20.8085Z" fill="white"/>
<path d="M24.2172 12.4481C23.9949 12.2259 23.6994 12.1035 23.3851 12.1035C23.0708 12.1035 22.7753 12.2259 22.5531 12.4482L20.7035 14.2978C20.2447 14.7566 20.2447 15.5031 20.7035 15.9619L24.1409 19.3993C24.3632 19.6216 24.6587 19.744 24.973 19.744C25.2872 19.744 25.5828 19.6216 25.805 19.3993L27.6546 17.5497C28.1134 17.0909 28.1134 16.3444 27.6546 15.8856L24.2172 12.4481Z" fill="white"/>
</g>
<defs>
<clipPath id="clip0_1604_23961">
<rect width="16" height="16.001" fill="white" transform="translate(12 12.1035)"/>
</clipPath>
</defs>
</svg>
