<svg width="40" height="41" viewBox="0 0 40 41" fill="none" xmlns="http://www.w3.org/2000/svg">
<ellipse cx="20" cy="20.089" rx="20" ry="20.0011" fill="#F0C514"/>
<g clip-path="url(#clip0_1604_23881)">
<path d="M13.6667 19.4225V17.4225C13.8507 17.4225 14 17.2732 14 17.0892C14 16.9052 13.8507 16.7559 13.6667 16.7559C12.7473 16.7559 12 17.5039 12 18.4225V19.0892C12 19.6405 12.4487 20.0892 13 20.0892H13.6667C13.8507 20.0892 14 19.9399 14 19.7559C14 19.5719 13.8507 19.4225 13.6667 19.4225Z" fill="white"/>
<path d="M26.3333 16.7559C26.1493 16.7559 26 16.9052 26 17.0892C26 17.2732 26.1493 17.4225 26.3333 17.4225V19.4225C26.1493 19.4225 26 19.5719 26 19.7559C26 19.9399 26.1493 20.0892 26.3333 20.0892H27C27.5513 20.0892 28 19.6405 28 19.0892V18.4225C28 17.5039 27.2527 16.7559 26.3333 16.7559Z" fill="white"/>
<path d="M17.6641 26.0898C17.4801 26.0898 17.3307 26.2392 17.3307 26.4232H15.3307C15.3307 26.2392 15.1814 26.0898 14.9974 26.0898C14.8134 26.0898 14.6641 26.2392 14.6641 26.4232V27.0898C14.6641 27.6412 15.1127 28.0898 15.6641 28.0898H16.9974C17.5488 28.0898 17.9974 27.6412 17.9974 27.0898V26.4232C17.9974 26.2392 17.8481 26.0898 17.6641 26.0898Z" fill="white"/>
<path d="M25 26.0898C24.816 26.0898 24.6667 26.2392 24.6667 26.4232H22.6667C22.6667 26.2392 22.5173 26.0898 22.3333 26.0898C22.1493 26.0898 22 26.2392 22 26.4232V27.0898C22 27.6412 22.4487 28.0898 23 28.0898H24.3333C24.8847 28.0898 25.3333 27.6412 25.3333 27.0898V26.4232C25.3333 26.2392 25.184 26.0898 25 26.0898Z" fill="white"/>
<path d="M25.0026 12.0889H15.0026C14.0832 12.0889 13.3359 12.8369 13.3359 13.7555V25.0889C13.3359 26.0075 14.0833 26.7555 15.0026 26.7555H25.0026C25.9219 26.7555 26.6692 26.0075 26.6692 25.0889V13.7555C26.6692 12.8369 25.9219 12.0889 25.0026 12.0889ZM16.3359 13.4222H23.6693C24.2206 13.4222 24.6693 13.8709 24.6693 14.4222C24.6693 14.9736 24.2206 15.4222 23.6693 15.4222H16.3359C15.7846 15.4222 15.3359 14.9736 15.3359 14.4222C15.3359 13.8709 15.7846 13.4222 16.3359 13.4222ZM16.3359 24.7555C15.7846 24.7555 15.3359 24.3069 15.3359 23.7555C15.3359 23.2042 15.7846 22.7555 16.3359 22.7555C16.8873 22.7555 17.3359 23.2042 17.3359 23.7555C17.3359 24.3069 16.8872 24.7555 16.3359 24.7555ZM23.6692 24.7555C23.1179 24.7555 22.6692 24.3069 22.6692 23.7555C22.6692 23.2042 23.1179 22.7555 23.6692 22.7555C24.2206 22.7555 24.6692 23.2042 24.6692 23.7555C24.6692 24.3069 24.2206 24.7555 23.6692 24.7555ZM25.3359 20.4222C25.3359 20.9736 24.8873 21.4222 24.3359 21.4222H15.6692C15.1179 21.4222 14.6692 20.9736 14.6692 20.4222V17.0889C14.6692 16.5375 15.1179 16.0889 15.6692 16.0889H24.3359C24.8872 16.0889 25.3359 16.5375 25.3359 17.0889V20.4222H25.3359Z" fill="white"/>
</g>
<ellipse cx="20" cy="20.089" rx="20" ry="20.0011" fill="#FEDB5A"/>
<path d="M13 23.8791C13 24.637 13.35 25.3108 13.875 25.7318V27.2477C13.875 27.753 14.225 28.0899 14.75 28.0899H15.625C16.15 28.0899 16.5 27.753 16.5 27.2477V26.4056H23.5V27.2477C23.5 27.753 23.85 28.0899 24.375 28.0899H25.25C25.775 28.0899 26.125 27.753 26.125 27.2477V25.7318C26.65 25.3108 27 24.6371 27 23.8791V15.4575C27 12.5099 23.85 12.0889 20 12.0889C16.15 12.0889 13 12.5099 13 15.4575V23.8791ZM16.0625 24.7212C15.3625 24.7212 14.75 24.1317 14.75 23.458C14.75 22.7843 15.3625 22.1948 16.0625 22.1948C16.7625 22.1948 17.375 22.7843 17.375 23.458C17.375 24.1317 16.7625 24.7212 16.0625 24.7212ZM23.9375 24.7212C23.2375 24.7212 22.625 24.1317 22.625 23.458C22.625 22.7843 23.2375 22.1948 23.9375 22.1948C24.6375 22.1948 25.25 22.7843 25.25 23.458C25.25 24.1317 24.6375 24.7212 23.9375 24.7212ZM25.25 19.6683H14.75V15.4575H25.25V19.6683Z" fill="white"/>
<defs>
<clipPath id="clip0_1604_23881">
<rect width="16" height="16.001" fill="white" transform="translate(12 12.0889)"/>
</clipPath>
</defs>
</svg>
