<svg width="41" height="41" viewBox="0 0 41 41" fill="none" xmlns="http://www.w3.org/2000/svg">
<ellipse cx="20.4082" cy="20.0909" rx="20" ry="20.0011" fill="#FFD3F0"/>
<path d="M13.4082 23.881C13.4082 24.639 13.7582 25.3127 14.2832 25.7338V27.2497C14.2832 27.755 14.6332 28.0918 15.1582 28.0918H16.0332C16.5582 28.0918 16.9082 27.755 16.9082 27.2497V26.4075H23.9082V27.2497C23.9082 27.755 24.2582 28.0918 24.7832 28.0918H25.6582C26.1832 28.0918 26.5332 27.755 26.5332 27.2497V25.7338C27.0582 25.3127 27.4082 24.639 27.4082 23.881V15.4595C27.4082 12.5119 24.2582 12.0908 20.4082 12.0908C16.5582 12.0908 13.4082 12.5119 13.4082 15.4595V23.881ZM16.4707 24.7232C15.7707 24.7232 15.1582 24.1337 15.1582 23.46C15.1582 22.7862 15.7707 22.1967 16.4707 22.1967C17.1707 22.1967 17.7832 22.7862 17.7832 23.46C17.7832 24.1337 17.1707 24.7232 16.4707 24.7232ZM24.3457 24.7232C23.6457 24.7232 23.0332 24.1337 23.0332 23.46C23.0332 22.7862 23.6457 22.1967 24.3457 22.1967C25.0457 22.1967 25.6582 22.7862 25.6582 23.46C25.6582 24.1337 25.0457 24.7232 24.3457 24.7232ZM25.6582 19.6702H15.1582V15.4595H25.6582V19.6702Z" fill="white"/>
</svg>
