<svg width="281" height="282" viewBox="0 0 281 282" fill="none" xmlns="http://www.w3.org/2000/svg">
<rect x="186" y="75.7432" width="23.4557" height="104.792" transform="rotate(-48.9785 186 75.7432)" fill="#E0E0E0"/>
<rect x="199.086" y="106.6" width="15.3724" height="44.9495" transform="rotate(-48.9785 199.086 106.6)" fill="#E0E0E0"/>
<rect x="33" y="199.743" width="23.4557" height="104.792" transform="rotate(-48.9785 33 199.743)" fill="#E0E0E0"/>
<rect x="80" y="211.355" width="30.8936" height="21.5243" transform="rotate(-48.9785 80 211.355)" fill="#E0E0E0"/>
<rect x="111" y="267.355" width="50.4022" height="21.5243" transform="rotate(-48.9785 111 267.355)" fill="#E0E0E0"/>
<rect y="207.073" width="50.4022" height="21.5243" transform="rotate(-48.9785 0 207.073)" fill="#E0E0E0"/>
<rect x="142.908" width="13.7596" height="34.1457" transform="rotate(43.9212 142.908 0)" fill="#E0E0E0"/>
<rect x="119.264" y="28.0518" width="17.3775" height="60.408" transform="rotate(-49.7068 119.264 28.0518)" fill="#E0E0E0"/>
<rect x="104.877" y="34.4463" width="20.0956" height="79.8224" transform="rotate(43.9212 104.877 34.4463)" fill="#E0E0E0"/>
<rect x="62.0391" y="104.1" width="17.3775" height="60.408" transform="rotate(-49.7068 62.0391 104.1)" fill="#E0E0E0"/>
<rect x="90" y="77.3018" width="17.3775" height="60.408" transform="rotate(-49.7068 90 77.3018)" fill="#E0E0E0"/>
<rect x="152" y="133.302" width="23.1613" height="91.9134" transform="rotate(-49.7068 152 133.302)" fill="#E0E0E0"/>
<rect x="206.088" y="273.048" width="23.1613" height="91.9134" transform="rotate(-135.077 206.088 273.048)" fill="#E0E0E0"/>
<rect x="183.479" y="215.545" width="23.1613" height="42.268" transform="rotate(-49.9534 183.479 215.545)" fill="#E0E0E0"/>
</svg>
