<?xml version="1.0" standalone="no"?>
<!DOCTYPE svg PUBLIC "-//W3C//DTD SVG 1.1//EN" "http://www.w3.org/Graphics/SVG/1.1/DTD/svg11.dtd" >
<svg xmlns="http://www.w3.org/2000/svg">
<metadata>Generated by IcoMoon</metadata>
<defs>
<font id="icomoon" horiz-adv-x="1024">
<font-face units-per-em="1024" ascent="960" descent="-64" />
<missing-glyph horiz-adv-x="1024" />
<glyph unicode="&#x20;" horiz-adv-x="512" d="" />
<glyph unicode="&#xe900;" glyph-name="okay" d="M989.86 853.797c-42.144 40.561-106.947 36.816-144.66-8.66l-465.578-559.874-204.22 222.731c-39.736 43.35-104.632 43.812-144.921 1.023-40.243-42.771-40.718-112.595-0.95-155.943l280.828-306.197c19.27-21.015 45.563-32.776 72.958-32.776 0.813 0 1.64 0 2.53 0 28.27 0.725 54.991 14.038 73.818 36.752l538.261 647.332c37.712 45.328 34.080 115.069-8.064 155.614z" />
<glyph unicode="&#xe901;" glyph-name="burger" d="M1024 813.714h-1024l76.065-146.286h947.935v146.286zM1024 521.143h-635.531l76.661-146.286h558.87v146.286zM1024 228.571h-718.945l76.066-146.286h642.878v146.286z" />
<glyph unicode="&#xe902;" glyph-name="cancel" d="M1024 857.6l-102.4 102.4-409.6-409.6-409.6 409.6-102.4-102.4 409.6-409.6-409.6-409.6 102.4-102.4 409.6 409.6 409.6-409.6 102.4 102.4-409.6 409.6 409.6 409.6z" />
<glyph unicode="&#xe903;" glyph-name="checkmate" d="M0 959.996h298.661v-298.662h-298.661v298.662zM0 234.663h298.661v-298.661h-298.661v298.661zM362.667 234.663h298.66v-298.661h-298.66v298.661zM725.333 234.663h298.661v-298.661h-298.661v298.661zM0 597.33h298.661v-298.661h-298.661v298.661zM362.667 597.33h298.66v-298.661h-298.66v298.661zM362.667 959.996v-298.662h362.66v-362.665h298.673v661.328h-661.333zM512.004 778.658c-17.664 0-32 14.336-32 32s14.336 32 32 32c17.664 0 32-14.336 32-32s-14.336-32-32-32zM874.666 415.997c-17.664 0-32 14.336-32 31.999s14.336 32 32 32c17.675 0 32-14.336 32-32s-14.325-31.999-32-31.999zM874.666 778.658c-17.664 0-32 14.336-32 32s14.336 32 32 32c17.675 0 32-14.336 32-32s-14.325-32-32-32z" />
<glyph unicode="&#xe904;" glyph-name="clock" d="M511.992 960c-282.762 0-511.992-229.236-511.992-511.992 0-282.754 229.229-512.008 511.992-512.008 282.76 0 512.008 229.254 512.008 512.008s-229.248 511.992-512.008 511.992zM733.338 350.628h-217.062c-0.734 0-1.416 0.177-2.143 0.205-0.727-0.034-1.407-0.205-2.144-0.205-19.555 0-35.411 15.855-35.411 35.411v361.482c0 19.555 15.855 35.411 35.411 35.411s35.411-15.855 35.411-35.411v-326.071h185.926c19.558 0 35.411-15.855 35.411-35.411s-15.84-35.411-35.398-35.411z" />
<glyph unicode="&#xe905;" glyph-name="comunication" d="M903.528 298.667v165.925h-361.409v99.556h180.705v331.851h-421.646v-331.851h180.706v-99.556h-361.412v-165.925h-120.471v-298.667h301.176v298.667h-120.471v99.555h301.176v-99.555h-120.471v-298.667h301.174v298.667h-120.468v99.555h301.178v-99.555h-120.473v-298.667h301.177v298.667h-120.473z" />
<glyph unicode="&#xe906;" glyph-name="copy" d="M721.426 960h-558.545c-51.434 0-93.092-41.657-93.092-93.092v-651.639h93.092v651.639h558.545v93.092zM861.117 773.823h-512.002c-51.432 0-93.092-41.657-93.092-93.092v-651.638c0-51.429 41.657-93.094 93.092-93.094h512.002c51.429 0 93.094 41.658 93.094 93.094v651.638c-0.006 51.432-41.665 93.092-93.094 93.092zM861.117 29.094h-512.002v651.638h512.002v-651.638z" />
<glyph unicode="&#xe907;" glyph-name="calender" d="M1023.964 771.346v-125.028h-1023.929v125.028c-0.298 10.697 1.59 21.342 5.548 31.283s9.901 18.973 17.467 26.539c7.566 7.566 16.597 13.511 26.539 17.467s20.586 5.845 31.283 5.547h53.891v-26.945c0-14.293 5.679-28 15.785-38.107s23.813-15.785 38.106-15.785c14.293 0 28 5.679 38.107 15.785s15.784 23.814 15.784 38.107v26.945h538.909v-26.945c0-14.293 5.675-28 15.784-38.107s23.815-15.785 38.107-15.785c14.292 0 27.998 5.679 38.107 15.785s15.784 23.814 15.784 38.107v26.945h53.891c10.7 0.298 21.343-1.59 31.283-5.547s18.973-9.901 26.543-17.467c7.563-7.566 13.51-16.596 17.466-26.539s5.845-20.586 5.545-31.283zM1023.964 592.431v-575.563c0.3-10.7-1.587-21.343-5.545-31.283s-9.903-18.973-17.466-26.543c-7.571-7.563-16.604-13.51-26.543-17.466s-20.582-5.845-31.283-5.545h-862.255c-10.696-0.3-21.341 1.587-31.283 5.545s-18.973 9.903-26.539 17.466c-7.566 7.571-13.51 16.604-17.467 26.543s-5.845 20.582-5.548 31.283v575.563h1023.929zM862.459 933.053v-107.784c0-7.146-2.838-14-7.892-19.053s-11.908-7.892-19.053-7.892c-7.146 0-13.999 2.838-19.053 7.892s-7.892 11.908-7.892 19.053v107.784c0 7.146 2.838 14 7.892 19.053s11.908 7.892 19.053 7.892c7.146 0 13.999-2.839 19.053-7.892s7.892-11.907 7.892-19.053zM835.513 960c-7.146 0-13.999-2.839-19.053-7.892s-7.892-11.907-7.892-19.053v-107.784c0-7.146 2.838-14 7.892-19.053s11.908-7.892 19.053-7.892c7.146 0 13.999 2.838 19.053 7.892s7.892 11.908 7.892 19.053v107.784c0 7.146-2.838 14-7.892 19.053s-11.908 7.892-19.053 7.892zM215.752 933.053v-107.784c0-7.146-2.838-14-7.892-19.053s-11.907-7.892-19.053-7.892c-7.146 0-14 2.838-19.053 7.892s-7.892 11.908-7.892 19.053v107.784c0 7.146 2.839 14 7.892 19.053s11.908 7.892 19.053 7.892c7.146 0 14-2.839 19.053-7.892s7.892-11.907 7.892-19.053zM188.806 960c-7.146 0-14-2.839-19.053-7.892s-7.892-11.907-7.892-19.053v-107.784c0-7.146 2.839-14 7.892-19.053s11.908-7.892 19.053-7.892c7.146 0 14 2.838 19.053 7.892s7.892 11.908 7.892 19.053v107.784c0 7.146-2.838 14-7.892 19.053s-11.907 7.892-19.053 7.892z" />
<glyph unicode="&#xe908;" glyph-name="diagram" d="M1008 311.659h-296.115c-4.243 0-8.314-1.69-11.315-4.685-3.002-3.002-4.685-7.072-4.685-11.315v-254.989c0-4.243 1.683-8.314 4.685-11.315s7.072-4.685 11.315-4.685h296.115c4.243 0 8.314 1.683 11.315 4.685s4.685 7.072 4.685 11.315v254.995c0 4.243-1.683 8.314-4.685 11.315s-7.072 4.685-11.315 4.685v-0.006zM875.942 343.658v46.76c-0.026 20.728-8.269 40.6-22.931 55.257-14.656 14.657-34.528 22.9-55.258 22.923h-269.754v83.738h-32v-83.738h-269.754c-20.732-0.024-40.607-8.271-55.265-22.931s-22.902-34.537-22.923-55.268v-46.4h32v46.422c0.015 12.244 4.887 23.982 13.546 32.639s20.397 13.526 32.641 13.539h571.508c12.243-0.013 23.987-4.883 32.646-13.542s13.53-20.399 13.542-32.644v-46.758l32 0.004zM528 584.34h132.058c4.243 0 8.314 1.686 11.315 4.686s4.685 7.071 4.685 11.314v254.99c0 4.243-1.683 8.313-4.685 11.313s-7.072 4.687-11.315 4.687h-296.118c-4.243 0-8.313-1.686-11.313-4.687s-4.687-7.070-4.687-11.313v-255c0-4.204 1.654-8.239 4.605-11.233s6.962-4.707 11.165-4.767l164.29 0.010zM148.058 311.998v-0.346h-132.058c-4.243 0-8.313-1.683-11.314-4.685s-4.686-7.072-4.686-11.315v-254.982c0-4.243 1.686-8.314 4.686-11.315s7.070-4.685 11.314-4.685h296.118c4.244 0 8.314 1.683 11.314 4.685s4.686 7.072 4.686 11.315v254.995c0 4.243-1.686 8.314-4.686 11.315s-7.070 4.685-11.314 4.685h-132.060v0.333h-32z" />
<glyph unicode="&#xe909;" glyph-name="download" d="M944.003 334v-277.999c0-22.056-17.948-40.004-40.004-40.004h-783.998c-22.056 0-40 17.948-40 40.004v277.999h-80v-277.999c0-66.167 53.832-120.001 120-120.001h783.998c66.167 0 120.001 53.834 120.001 120.001v277.999h-79.997zM703.903 488.568l-152.003-152.002v623.434h-79.999v-623.434l-152 152.002-56.567-56.568 248.567-248.567 248.567 248.567-56.565 56.568z" />
<glyph unicode="&#xe90a;" glyph-name="facebook" d="M684.085 789.974h98.974v162.816c-17.076 2.218-75.799 7.211-144.192 7.211-142.701 0-240.455-84.779-240.455-240.598v-143.403h-157.471v-182.016h157.471v-457.984h193.069v457.941h151.103l23.987 182.016h-175.134v125.398c0.046 52.609 15.042 88.619 92.649 88.619z" />
<glyph unicode="&#xe90b;" glyph-name="filter" d="M995.514 846.225h-548.931c-22.754 65.421-85.327 113.775-162.12 113.775-73.949 0-136.522-48.354-162.12-113.775h-93.858c-14.221 0-28.442-14.221-28.442-28.444v-56.888c0-14.221 14.221-28.444 28.442-28.444h93.858c22.753-65.42 85.327-113.775 162.12-113.775 73.949 0 136.523 48.355 162.12 113.775h548.931c14.226 0 28.444 14.222 28.444 28.444v56.888c0 14.222-14.218 28.444-28.444 28.444zM284.463 704.008c-48.352 0-85.326 36.977-85.326 85.331s36.975 85.331 85.326 85.331c48.352 0 85.326-36.977 85.326-85.331s-36.975-85.331-85.326-85.331zM995.514 504.927h-93.858c-22.752 65.42-85.324 113.775-162.12 113.775-73.949 0-136.522-48.355-162.12-113.775h-548.932c-14.221 0-28.442-14.222-28.442-28.444v-56.888c0-14.222 14.221-28.444 28.442-28.444h548.932c22.753-65.42 85.327-113.775 162.12-113.775 73.946 0 136.526 48.355 162.12 113.775h93.858c14.226 0 28.444 14.222 28.444 28.444v56.888c0 14.222-14.218 28.444-28.444 28.444zM739.537 362.707c-48.352 0-85.326 36.977-85.326 85.332s36.975 85.331 85.326 85.331c48.353 0 85.331-36.977 85.331-85.331s-36.978-85.332-85.331-85.332zM995.514 163.551h-435.163c-22.753 65.42-85.326 113.775-162.12 113.775-73.949 0-136.522-48.355-162.12-113.775h-207.627c-14.221 0-28.442-14.226-28.442-28.444v-56.888c0-14.218 14.221-28.444 28.442-28.444h207.627c22.753-65.421 85.326-113.775 162.12-113.775 73.949 0 136.522 48.354 162.12 113.775h435.163c14.226 0 28.444 14.226 28.444 28.444v56.888c0 14.218-14.218 28.444-28.444 28.444zM398.232 21.331c-48.352 0-85.326 36.978-85.326 85.332s36.975 85.332 85.326 85.332c48.352 0 85.326-36.978 85.326-85.332s-36.975-85.332-85.326-85.332z" />
<glyph unicode="&#xe90c;" glyph-name="home" d="M512 886.859c0 0-316.725-260.39-493.723-401.41-10.394-8.972-18.278-22.041-18.278-37.449 0-26.965 22.887-48.761 51.2-48.761h102.4v-341.334c0-26.968 22.887-48.764 51.2-48.764h153.6c28.314 0 51.2 21.847 51.2 48.764v195.048h204.801v-195.048c0-26.917 22.887-48.764 51.2-48.764h153.6c28.314 0 51.2 21.796 51.2 48.764v341.334h102.4c28.314 0 51.2 21.796 51.2 48.761 0 15.409-7.885 28.478-19.61 37.449-175.77 141.020-492.392 401.41-492.392 401.41z" />
<glyph unicode="&#xe90d;" glyph-name="schema" d="M842.026 352.012h-213.003c-16.575 0-30 13.431-30 30v101.137c0 16.157 12.413 30.050 28.551 30.812 17.231 0.813 31.449-12.912 31.449-29.962v-71.987h364.007l-0.008 517.986c0 16.569-13.435 30-29.999 30h-338.108v-295.149c0-16.151-12.413-30.050-28.55-30.812-17.231-0.813-31.45 12.912-31.45 29.969v295.994h-563.943c-16.569 0-30-13.432-30-30v-632.336h301.162c16.157 0 30.056-12.413 30.812-28.543 0.813-17.231-12.912-31.454-29.957-31.454h-302.018v-271.662c0-16.571 13.431-30.006 30-30.006h811.052c16.555 0 29.999 13.435 29.999 30.006v356.008c0 16.562-13.442 30.001-29.999 30.001z" />
<glyph unicode="&#xe90e;" glyph-name="image" d="M905.921 959.979h-787.829c-15.518 0.042-30.892-2.983-45.237-8.901s-27.379-14.616-38.352-25.588c-10.972-10.973-19.669-24.007-25.588-38.352s-8.945-29.719-8.903-45.237v-787.512c-0.276-18.909 4.121-37.596 12.801-54.398l536.634 437.116c33.862 27.952 76.281 43.451 120.186 43.917s86.644-14.13 121.089-41.358l233.278-181.438v583.674c0 31.317-12.442 61.351-34.584 83.494s-52.177 34.584-83.494 34.584zM275.529 487.344c-23.339 0.064-46.137 7.043-65.514 20.056s-34.46 31.476-43.349 53.058c-8.887 21.582-11.181 45.314-6.588 68.197s15.864 43.893 32.39 60.375c16.526 16.482 37.566 27.695 60.463 32.226s46.622 2.173 68.179-6.774c21.558-8.946 39.98-24.080 52.94-43.491s19.877-42.228 19.877-65.568c-0.084-31.346-12.596-61.379-34.791-83.514s-52.261-34.566-83.608-34.566zM745.556 381.776l278.402-215.999v-111.356c0-31.351-12.433-61.417-34.568-83.61s-52.169-34.708-83.511-34.79h-787.837c-18.78-0.024-37.303 4.361-54.079 12.803l531.514 431.673c21.168 17.188 47.548 26.675 74.815 26.908s53.802-8.804 75.262-25.628z" />
<glyph unicode="&#xe90f;" glyph-name="intagram" d="M515.533 183.466c-144.2 0-261.533 117.332-261.533 261.532s117.332 261.533 261.533 261.533c144.2 0 261.533-117.332 261.533-261.533 0-144.23-117.332-261.532-261.533-261.532zM515.533 597.836c-84.268 0-152.839-68.57-152.839-152.839 0-84.272 68.57-152.837 152.839-152.837 84.266 0 152.838 68.566 152.838 152.837 0 84.268-68.572 152.839-152.838 152.839zM773.892 644.684c33.99 0 61.542 27.553 61.542 61.541s-27.552 61.541-61.542 61.541c-33.985 0-61.537-27.553-61.537-61.541s27.552-61.541 61.537-61.541zM731.070-64h-438.171c-161.507 0-292.899 131.392-292.899 292.9v438.2c0 161.507 131.392 292.899 292.899 292.899h438.2c161.509 0 292.9-131.392 292.9-292.899v-438.2c0-161.479-131.421-292.9-292.93-292.9zM292.899 851.337c-101.575 0-184.205-82.631-184.205-184.205v-438.2c0-101.575 82.631-184.206 184.205-184.206h438.2c101.575 0 184.206 82.631 184.206 184.206v438.171c0 101.575-82.631 184.205-184.206 184.205l-438.2 0.030z" />
<glyph unicode="&#xe910;" glyph-name="list" d="M83.018 38.448c-45.937 0-83.018 36.584-83.018 81.911 0 45.322 37.080 81.911 83.018 81.911s83.017-36.589 83.017-81.911c0-45.327-37.080-81.911-83.017-81.911zM83.018 366.114c-45.937 0-83.018 36.586-83.018 81.911s37.080 81.911 83.018 81.911c45.937 0 83.017-36.586 83.017-81.911s-37.080-81.911-83.017-81.911zM83.018 693.73c-46.212 0-83.018 36.86-83.018 81.912s37.358 81.911 83.018 81.911c45.659 0 83.017-36.86 83.017-81.911s-36.805-81.912-83.017-81.912zM1024 721.027h-774.827v109.215h774.827v-109.215zM1024 65.746h-774.827v109.219h774.827v-109.219zM1024 393.411h-774.827v109.216h774.827v-109.216z" />
<glyph unicode="&#xe911;" glyph-name="location" d="M511.999 960c-215.701 0-391.192-180.038-391.192-401.332 0-209.171 324.698-569.282 361.717-609.705 15.849-17.284 43.1-17.284 58.95 0 37.027 40.385 361.719 400.533 361.719 609.705 0.019 221.294-175.474 401.332-391.194 401.332zM511.999 392.585c-89.253 0-161.873 74.503-161.873 166.067 0 91.569 72.62 166.068 161.873 166.068 89.272 0 161.873-74.503 161.873-166.068 0-91.569-72.601-166.067-161.873-166.067z" />
<glyph unicode="&#xe912;" glyph-name="mail" d="M542.198 318.964c-9.609-5.49-20.59-8.238-30.198-8.238s-20.59 2.748-30.198 8.238l-481.802 293.746v-391.208c0-83.729 67.26-150.989 150.992-150.989h722.014c83.735 0 150.994 67.26 150.994 150.989v391.208l-481.802-293.746zM872.892 825.488h-722.019c-71.378 0-131.775-50.788-146.874-118.048l507.882-310.22 507.88 310.22c-15.098 67.26-75.492 118.048-146.87 118.048z" />
<glyph unicode="&#xe913;" glyph-name="panels" d="M633.115 960h312.541c28.762 0 52.084-24.584 52.084-54.904v-329.424c0-30.321-23.322-54.904-52.084-54.904h-312.541c-28.767 0-52.089 24.583-52.089 54.904v329.424c0 30.32 23.324 54.904 52.089 54.904zM78.349 960h312.538c28.766 0 52.089-24.584 52.089-54.904v-329.424c0-30.321-23.324-54.904-52.089-54.904h-312.538c-28.766 0-52.089 24.583-52.089 54.904v329.424c0 30.32 23.324 54.904 52.089 54.904zM633.115 375.232h312.541c28.762 0 52.084-24.586 52.084-54.903v-329.427c0-30.316-23.322-54.902-52.084-54.902h-312.541c-28.767 0-52.089 24.585-52.089 54.902v329.427c0 30.316 23.324 54.903 52.089 54.903zM78.349 375.232h312.538c28.766 0 52.089-24.586 52.089-54.903v-329.427c0-30.316-23.324-54.902-52.089-54.902h-312.538c-28.766 0-52.089 24.585-52.089 54.902v329.427c0 30.316 23.324 54.903 52.089 54.903z" />
<glyph unicode="&#xe914;" glyph-name="arrow-down" d="M61.849 727.273l-61.849-60.2 512-498.345 512 498.345-61.85 60.2-450.15-438.112-450.151 438.112z" />
<glyph unicode="&#xe915;" glyph-name="main" d="M787.692 539.897v420.103h-551.385v-1024h551.385v603.898zM630.153 408.614h-236.308v78.769h236.308v-78.769zM630.153 566.153h-236.308v78.769h236.308v-78.769zM630.153 723.692h-236.308v78.769h236.308v-78.769zM787.692 137.142v0z" />
<glyph unicode="&#xe916;" glyph-name="dropdown" d="M512 115.447l512 665.107h-1024l512-665.107z" />
<glyph unicode="&#xe917;" glyph-name="share" d="M812 296.002c-59.283 0-111.526-29.166-144.336-73.511l-283.686 145.263c4.71 16.053 8.020 32.69 8.020 50.245 0 23.812-4.882 46.451-13.316 67.272l296.891 178.656c33.040-38.776 81.6-63.927 136.427-63.927 99.256 0 180.001 80.742 180.001 180s-80.746 180-180.001 180c-99.261 0-180.002-80.742-180.002-180 0-22.875 4.711-44.572 12.524-64.716l-297.774-179.18c-33.012 37.624-80.876 61.896-134.75 61.896-99.258 0-180-80.742-180-180s80.742-179.998 180-179.998c60.26 0 113.382 30.016 146.070 75.607l282.749-144.788c-5.204-16.812-8.819-34.322-8.819-52.82 0-99.261 80.739-180.001 180.002-180.001 99.256 0 180.001 80.739 180.001 180.001 0 99.256-80.746 180.001-180.001 180.001z" />
<glyph unicode="&#xe918;" glyph-name="table" d="M995.084 852.308c-19.29 19.285-42.457 28.921-69.543 28.921h-827.078c-27.077 0-50.258-9.638-69.543-28.921-19.28-19.289-28.921-42.462-28.921-69.544v-669.541c0-27.084 9.641-50.24 28.921-69.536 19.285-19.29 42.464-28.916 69.543-28.916h827.078c27.084 0 50.253 9.626 69.543 28.916 19.283 19.296 28.916 42.464 28.916 69.536v669.541c0 27.083-9.632 50.261-28.916 69.544zM315.086 113.241c0-5.76-1.851-10.464-5.548-14.164-3.69-3.687-8.403-5.523-14.154-5.523h-196.919c-5.739 0-10.46 1.837-14.155 5.523-3.693 3.699-5.536 8.403-5.536 14.164v118.163c0 5.754 1.844 10.458 5.536 14.137 3.695 3.705 8.417 5.548 14.155 5.548h196.926c5.749 0 10.471-1.844 14.154-5.548 3.688-3.68 5.54-8.385 5.54-14.137v-118.163h0.002zM315.086 349.539c0-5.74-1.851-10.463-5.548-14.148-3.69-3.694-8.403-5.537-14.154-5.537h-196.919c-5.739 0-10.46 1.844-14.155 5.537-3.693 3.688-5.536 8.409-5.536 14.148v118.158c0 5.742 1.844 10.463 5.536 14.155 3.695 3.683 8.417 5.528 14.155 5.528h196.926c5.749 0 10.463-1.843 14.154-5.528 3.688-3.693 5.54-8.413 5.54-14.155v-118.158h0.002zM315.086 585.846c0-5.746-1.851-10.46-5.548-14.154-3.69-3.684-8.403-5.536-14.154-5.536h-196.919c-5.739 0-10.46 1.851-14.155 5.536-3.693 3.697-5.536 8.409-5.536 14.154v118.154c0 5.746 1.844 10.467 5.536 14.154 3.695 3.693 8.417 5.536 14.155 5.536h196.926c5.749 0 10.463-1.843 14.154-5.536 3.688-3.688 5.54-8.408 5.54-14.154v-118.154h0.002zM630.163 113.241c0-5.76-1.844-10.464-5.523-14.164-3.693-3.687-8.41-5.523-14.164-5.523h-196.938c-5.74 0-10.46 1.837-14.155 5.523-3.693 3.699-5.535 8.403-5.535 14.164v118.163c0 5.754 1.843 10.458 5.535 14.137 3.695 3.705 8.415 5.548 14.155 5.548h196.931c5.754 0 10.47-1.844 14.157-5.548 3.673-3.68 5.517-8.385 5.517-14.137v-118.157l0.019-0.006zM630.163 349.539c0-5.74-1.844-10.463-5.523-14.148-3.693-3.694-8.41-5.537-14.164-5.537h-196.938c-5.74 0-10.46 1.844-14.155 5.537-3.693 3.688-5.535 8.409-5.535 14.148v118.158c0 5.742 1.843 10.463 5.535 14.155 3.695 3.683 8.415 5.528 14.155 5.528h196.931c5.754 0 10.47-1.843 14.157-5.528 3.673-3.693 5.517-8.413 5.517-14.155v-118.158h0.019zM630.163 585.846c0-5.746-1.844-10.46-5.523-14.154-3.693-3.684-8.41-5.536-14.164-5.536h-196.938c-5.74 0-10.46 1.851-14.155 5.536-3.693 3.697-5.535 8.409-5.535 14.154v118.154c0 5.746 1.843 10.467 5.535 14.154 3.695 3.693 8.415 5.536 14.155 5.536h196.931c5.754 0 10.47-1.843 14.157-5.536 3.673-3.688 5.517-8.408 5.517-14.154v-118.154h0.019zM945.229 113.241c0-5.76-1.844-10.464-5.523-14.164-3.705-3.687-8.423-5.523-14.164-5.523h-196.909c-5.76 0-10.476 1.837-14.157 5.523-3.687 3.699-5.517 8.403-5.517 14.164v118.163c0 5.754 1.83 10.458 5.517 14.137 3.68 3.705 8.396 5.548 14.157 5.548h196.909c5.741 0 10.464-1.844 14.164-5.548 3.68-3.68 5.523-8.385 5.523-14.137v-118.163zM945.229 349.539c0-5.74-1.844-10.463-5.523-14.148-3.705-3.694-8.423-5.537-14.164-5.537h-196.909c-5.76 0-10.476 1.844-14.157 5.537-3.687 3.688-5.517 8.409-5.517 14.148v118.158c0 5.742 1.83 10.463 5.517 14.155 3.68 3.683 8.396 5.528 14.157 5.528h196.909c5.741 0 10.464-1.843 14.164-5.528 3.68-3.693 5.523-8.413 5.523-14.155v-118.158zM945.229 585.846c0-5.746-1.844-10.46-5.523-14.154-3.705-3.684-8.423-5.536-14.164-5.536h-196.909c-5.76 0-10.476 1.851-14.157 5.536-3.687 3.697-5.517 8.409-5.517 14.154v118.154c0 5.746 1.83 10.467 5.517 14.154 3.68 3.693 8.396 5.536 14.157 5.536h196.909c5.741 0 10.464-1.843 14.164-5.536 3.68-3.688 5.523-8.408 5.523-14.154v-118.154z" />
<glyph unicode="&#xe919;" glyph-name="telegramm" d="M70.111 506.289c274.821 119.351 457.774 198.656 549.642 237.132 261.477 109.144 316.44 127.989 351.772 128.774 7.853 0 25.127-1.57 36.905-10.993 9.421-7.852 11.778-18.060 13.351-25.912 1.567-7.852 3.14-24.341 1.567-36.904-14.134-149.188-75.378-511.169-106.786-677.632-13.351-70.665-39.262-94.225-64.39-96.575-54.963-4.713-96.575 36.116-149.188 70.665-83.231 54.179-129.557 87.944-210.433 141.34-93.44 61.244-32.978 95.007 20.415 149.971 14.134 14.134 255.192 233.991 259.905 253.621 0.783 2.356 0.783 11.779-4.713 16.49s-13.351 3.141-19.631 1.571c-8.638-1.571-140.551-89.514-397.313-263.043-37.69-25.912-71.453-38.475-102.076-37.69-33.764 0.785-98.151 18.845-146.833 34.549-58.89 18.845-106.003 29.052-102.076 62.031 2.355 17.275 25.912 34.549 69.883 52.609z" />
<glyph unicode="&#xe91a;" glyph-name="mark" d="M806.196-52.594c8.935-7.604 20.422-11.406 31.909-11.406 7.658 0 15.315 1.269 22.973 5.071 17.871 8.869 29.357 26.611 29.357 45.622v783.208c0 105.188-85.513 190.099-191.452 190.099h-373.966c-105.936 0-191.451-84.911-191.451-190.099v-781.939c0-19.011 11.487-36.752 29.356-45.626 17.869-8.869 38.29-6.335 53.607 6.34 0 0 1.276 0 1.276 1.265l293.558 244.593 294.833-247.127zM511.363 283.246c-8.934 0-17.869-2.534-24.25-8.873l-276.965-233.187v728.714c0 63.366 51.053 114.059 114.87 114.059h372.693c63.817 0 114.87-50.693 114.87-114.059v-727.445l-276.967 231.918c-6.382 5.071-15.316 8.873-24.25 8.873z" />
<glyph unicode="&#xe91b;" glyph-name="mark-fill" d="M806.194-52.594c8.936-7.604 20.422-11.406 31.909-11.406 7.658 0 15.315 1.269 22.973 5.071 17.871 8.869 29.358 26.611 29.358 45.621v783.209c0 105.188-85.513 190.099-191.452 190.099h-373.966c-105.936 0-191.451-84.911-191.451-190.099v-781.94c0-19.011 11.487-36.753 29.356-45.626 17.869-8.869 38.29-6.335 53.606 6.34 0 0 1.276 0 1.276 1.264l293.559 244.594 294.833-247.127zM511.361 283.247c-8.935 0-17.869-2.533-24.251-8.873l-276.966-233.187v728.714c0 63.366 51.054 114.059 114.871 114.059h372.693c63.817 0 114.871-50.693 114.871-114.059v-727.445l-276.967 231.918c-6.382 5.071-15.316 8.873-24.251 8.873zM178.086 804.174l111.304 111.304 422.957 22.261 89.043-66.783 44.522-133.565v-779.13l-356.174 267.13-311.652-267.13v845.913z" />
<glyph unicode="&#xe91c;" glyph-name="viber" d="M612.393 960h-200.785c-193.254 0-351.373-161.213-351.373-358.251v-153.536c0-138.182 79.059-264.851 200.784-323.707v-171.448c0-15.354 18.824-23.028 28.862-11.517l145.569 148.419h176.941c193.254 0 351.373 161.213 351.373 358.252v153.536c0 197.037-158.117 358.251-351.373 358.251zM744.16 288.28l-51.452-51.181c-53.959-53.736-193.254 7.68-316.236 135.626-122.98 127.947-176.941 271.248-125.49 324.985l50.196 51.179c18.824 19.192 50.196 17.913 71.53-1.279l72.785-76.768c26.353-26.869 15.059-72.93-18.824-83.165-23.843-7.676-40.157-34.546-32.627-58.856 12.549-56.297 82.823-127.946 135.529-142.019 23.843-5.12 50.196 7.674 58.98 31.984 11.294 34.545 56.469 44.781 81.569 17.913l72.782-76.768c20.083-17.914 20.083-49.899 1.259-71.65zM557.178 716.901c-5.020 0-10.040 0-15.059-1.279-8.784-1.279-17.569 6.397-18.824 15.353s6.275 17.913 15.059 19.192c6.275 1.279 12.549 1.279 18.824 1.279 91.606 0 166.9-76.768 166.9-170.169 0-6.397 0-12.795-1.253-19.192-1.253-8.957-10.041-16.633-18.824-15.353s-16.312 10.236-15.059 19.192c0 5.117 1.253 10.236 1.253 15.353 1.259 74.21-58.979 135.624-133.018 135.624zM657.571 579.998c0-8.957-7.529-16.633-16.318-16.633-8.782 0-16.312 7.676-16.312 16.633 0 37.104-30.117 67.811-66.51 67.811-8.784 0-16.313 7.676-16.313 16.633s7.529 16.633 16.313 16.633c53.961 1.279 99.14-44.781 99.14-101.077zM785.571 524.982c-2.512-8.957-11.294-15.354-21.335-12.795-8.782 2.559-13.806 11.515-11.294 20.471 3.765 15.353 5.018 30.707 5.018 47.34 0 112.593-90.353 204.714-200.783 204.714-5.020 0-10.040 0-15.059 0-8.784 0-17.569 6.397-17.569 15.354s6.275 17.912 15.059 17.912c6.275 0 12.549 1.279 17.569 1.279 129.253 0 234.665-107.475 234.665-239.26 0-17.913-2.506-37.104-6.27-55.018z" />
<glyph unicode="&#xe91d;" glyph-name="vkontacte" d="M881.295 366.172c33.972-34.472 69.819-66.904 100.286-104.852 13.457-16.863 26.203-34.265 35.949-53.835 13.806-27.82 1.301-58.432-22.697-60.094l-149.179 0.066c-38.478-3.319-69.174 12.782-94.979 40.129-20.655 21.869-39.786 45.142-59.645 67.748-8.138 9.239-16.661 17.933-26.841 24.806-20.365 13.74-38.044 9.533-49.682-12.545-11.854-22.455-14.54-47.32-15.705-72.346-1.598-36.515-12.216-46.111-47.502-47.785-75.41-3.699-146.979 8.162-213.463 47.705-58.615 34.86-104.068 84.072-143.631 139.785-77.029 108.486-136.017 227.693-189.034 350.241-11.934 27.61-3.206 42.431 26.101 42.956 48.667 0.983 97.327 0.913 146.050 0.070 19.779-0.301 32.874-12.093 40.511-31.516 26.33-67.296 58.548-131.322 98.988-190.669 10.77-15.801 21.751-31.6 37.389-42.721 17.3-12.314 30.472-8.233 38.61 11.8 5.165 12.702 7.425 26.382 8.59 39.986 3.856 46.803 4.364 93.525-2.399 140.163-4.152 29.107-19.924 47.95-47.866 53.457-14.259 2.808-12.135 8.323-5.231 16.783 11.991 14.591 23.268 23.673 45.749 23.673h168.595c26.542-5.445 32.436-17.839 36.070-45.599l0.144-194.663c-0.289-10.746 5.166-42.637 23.785-49.751 14.908-5.064 24.732 7.33 33.672 17.154 40.37 44.533 69.18 97.162 94.912 151.658 11.426 23.962 21.245 48.848 30.762 73.713 7.054 18.452 18.119 27.53 38.117 27.127l162.261-0.15c4.813 0 9.68-0.074 14.336-0.903 27.347-4.843 34.84-17.070 26.395-44.824-13.306-43.543-39.201-79.829-64.512-116.284-27.057-38.921-56.001-76.507-82.836-115.658-24.654-35.752-22.697-53.772 7.927-84.824z" />
<glyph unicode="&#xe91e;" glyph-name="whatsapp" d="M512.127 959.999h-0.255c-282.304 0-511.872-229.632-511.872-512 0-112.001 36.096-215.811 97.472-300.098l-63.808-190.205 196.799 62.91c80.961-53.634 177.536-84.606 281.664-84.606 282.303 0 511.872 229.695 511.872 512s-229.569 512-511.872 512zM810.049 236.989c-12.354-34.877-61.38-63.807-100.484-72.252-26.75-5.699-61.693-10.24-179.325 38.526-150.464 62.337-247.36 215.232-254.912 225.152-7.233 9.919-60.801 80.96-60.801 154.431s37.312 109.247 52.351 124.608c12.352 12.608 32.768 18.368 52.352 18.368 6.336 0 12.032-0.32 17.152-0.576 15.041-0.641 22.592-1.536 32.512-25.28 12.352-29.76 42.432-103.232 46.016-110.784 3.648-7.552 7.295-17.791 2.176-27.712-4.8-10.24-9.024-14.783-16.576-23.488s-14.721-15.36-22.272-24.704c-6.913-8.129-14.721-16.832-6.016-31.872 8.704-14.721 38.784-63.809 83.072-103.233 57.152-50.881 103.488-67.138 120.065-74.048 12.348-5.12 27.070-3.903 36.093 5.699 11.456 12.348 25.6 32.828 40.002 52.989 10.24 14.462 23.166 16.257 36.738 11.138 13.824-4.801 86.974-40.959 102.014-48.447 15.041-7.554 24.962-11.138 28.606-17.474 3.584-6.337 3.584-36.093-8.764-71.042z" />
<glyph unicode="&#xe91f;" glyph-name="youtube" d="M827.391 820.835c-209.505 33.848-423.324 33.848-632.832 0-119.808-24.391-194.56-99.556-194.56-197.618v-348.444c0-99.556 74.752-173.728 196.608-199.111 104.218-17.061 209.708-25.719 315.392-25.884 106.012 0.023 211.836 8.511 316.415 25.384 118.784 21.903 195.584 99.556 195.584 199.111v348.447c0 99.058-76.8 176.712-196.608 198.116zM678.911 425.598l-255.999-149.336c-4.004-2.373-8.624-3.578-13.312-3.482-4.445 0.034-8.823 1.058-12.8 2.987-4.026 2.373-7.332 5.746-9.58 9.768s-3.358 8.55-3.22 13.13v298.666c0.038 4.408 1.234 8.734 3.475 12.567s5.449 7.047 9.325 9.335c4.016 2.092 8.5 3.187 13.056 3.187s9.040-1.094 13.056-3.187l255.999-149.333c3.703-2.294 6.747-5.458 8.858-9.199s3.214-7.938 3.214-12.206c0-4.267-1.103-8.464-3.214-12.206s-5.154-6.905-8.858-9.199v-1.493z" />
<glyph unicode="&#xe920;" glyph-name="arrow-left" d="M241.6 398.838c-27.152 27.15-27.152 71.176 0 98.326l442.471 442.472c27.155 27.152 71.176 27.152 98.326 0 27.155-27.152 27.155-71.175 0-98.327l-393.306-393.309 393.306-393.307c27.155-27.155 27.155-71.176 0-98.326-27.15-27.155-71.172-27.155-98.326 0l-442.471 442.471zM325.527 378.473h-34.764v139.055h34.764v-139.055z" />
<glyph unicode="&#xe921;" glyph-name="plan" d="M992.135-0.269v347.995h-290.117v-218.402h-63.739v282.136h353.855v548.54h-357.246v-364.508h214.557v-63.735h-560.916v63.735h282.626v364.508h-539.29v-364.508h93.875v-63.735h-93.875v-120.298h93.875v-63.732h-93.875v-347.995h352.266v347.995h-95.602v63.732h210.719v-63.732h-51.382v-347.995h316.946v-63.732h161.462v63.732h65.86z" />
<glyph unicode="&#xe922;" glyph-name="bank" d="M19.229 677.138c-0.38-2.022-0.594-4.074-0.662-6.125v-42.126c0.055-17.361 11.057-32.88 27.652-38.977v-61.983c0.076-20.752 16.727-37.807 37.873-38.79v-358.085c-21.146-0.989-37.797-18.044-37.873-38.788v-61.8c-16.63-6.26-27.624-21.896-27.652-39.343v-41.206c0-7.682 6.367-13.915 14.206-13.915h957.821c7.84 0 14.2 6.233 14.2 13.915v41.206c-0.030 17.455-11.024 33.089-27.646 39.343v62.167c-0.076 20.749-16.735 37.805-37.873 38.788v357.718c21.138 0.983 37.795 18.038 37.873 38.79v61.983c16.589 6.097 27.588 21.616 27.646 38.977v41.849c-0.063 2.050-0.283 4.102-0.664 6.125 7.141-3.099 15.49 0.055 18.653 7.054 3.163 6.991-0.055 15.173-7.19 18.28l-497.376 256.197c-4.151 2.145-9.11 2.145-13.261 0l-497.371-255.918c-6.941-3.594-9.599-12.007-5.946-18.808 3.342-6.215 10.884-9.015 17.59-6.526zM74.623 565.788v21.435h163.799v-21.252l-163.799-0.183zM439.341 489.043v-357.99c-21.146-0.989-37.797-18.044-37.873-38.788v-59.201h-134.835v59.201c-0.076 20.743-16.727 37.799-37.875 38.788v358.085c21.148 0.983 37.797 18.038 37.875 38.79v59.296h134.64v-59.209c0.036-20.785 16.699-37.88 37.88-38.876l0.188-0.095zM429.873 565.788v21.435h163.806v-21.252l-163.806-0.183zM794.598 489.043v-357.99c-21.146-0.989-37.803-18.044-37.88-38.788v-59.201h-134.827v59.201c-0.076 20.743-16.735 37.799-37.875 38.788v358.085c21.14 0.983 37.797 18.038 37.875 38.79v59.296h134.642v-59.209c0.028-20.785 16.691-37.88 37.873-38.876l0.193-0.095zM785.13 565.788v21.435h163.798v-21.252l-163.798-0.183zM948.928 54.309v-21.244h-163.991v21.244h163.991zM593.679 54.309v-21.244h-163.993v21.244h163.993zM453.354 516.699h-12.307c-6.277 0-11.36 4.98-11.36 11.134v10.118h163.8v-10.118c0-6.154-5.085-11.134-11.362-11.134h-128.769zM555.709 488.861v-357.623h-88.148v357.623h88.148zM453.354 103.4h128.769c6.277 0 11.362-4.982 11.362-11.134v-10.118h-163.8v10.118c0 6.152 5.083 11.134 11.36 11.134h12.307zM238.236 54.309v-21.244h-163.806v21.244h163.806zM74.43 527.556v10.395h163.806v-10.118c0-6.154-5.083-11.134-11.368-11.134h-141.36c-6.202 0.148-11.133 5.149-11.078 11.229v-0.372zM200.361 488.585v-357.348h-88.058v357.623l88.058-0.275zM74.43 91.982c0 6.158 5.083 11.14 11.36 11.14h141.078c6.286 0 11.368-4.982 11.368-11.14v-10.112h-163.806v10.112zM976.387-9.44v-27.276h-929.602v27.276c0 7.946 6.568 14.392 14.676 14.392h900.253c7.989 0 14.523-6.276 14.675-14.105v-0.285zM948.743 91.982v-10.112h-163.806v10.112c0 6.158 5.083 11.14 11.36 11.14h141.367c6.057-0.15 10.925-4.921 11.079-10.857v-0.283zM822.809 130.96v357.901h88.15v-357.623l-88.15-0.277zM948.743 527.556c0-6.154-5.085-11.134-11.36-11.134h-140.989c-6.277 0-11.36 4.98-11.36 11.134v10.395h163.798l-0.089-10.395zM511.586 930.554l422.951-217.875h-845.901l422.951 217.875zM46.784 670.736c0 7.682 6.36 13.915 14.199 13.915h901.206c7.838 0 14.198-6.233 14.198-13.915v-42.132c0-7.682-6.361-13.917-14.198-13.917h-901.206c-7.839 0-14.199 6.235-14.199 13.917v42.132z" />
<glyph unicode="&#xe923;" glyph-name="buildigs" d="M1011.292-6.19h-29.22v863.92c0 3.811-2.54 7.623-5.081 10.164-3.813 2.541-7.624 2.541-11.435 1.27l-251.552-82.581c-5.083-1.27-8.894-6.352-8.894-12.705v-781.34h-39.385v923.632c0 7.623-5.081 12.705-12.705 12.705h-246.471c-7.621 0-12.705-5.082-12.705-12.705v-922.362h-41.925v863.92c0 3.811-2.54 7.623-5.081 10.164-3.811 2.541-7.621 2.541-11.435 1.27l-251.552-82.581c-5.082-1.27-8.893-6.352-8.893-12.705v-781.34h-62.253c-7.623 0-12.705-5.081-12.705-12.705s5.082-12.705 12.705-12.705h998.59c7.624 0 12.705 5.081 12.705 12.705s-5.081 13.975-12.705 13.975zM326.509-6.19h-226.145v772.447l226.145 73.688v-846.133zM640.313-6.19h-221.062v909.657h221.062v-909.657zM957.931-6.19h-226.143v772.447l226.143 73.688v-846.133zM158.796 705.281c-7.623 0-12.705-5.082-12.705-12.704v-50.819c0-7.624 6.352-12.705 12.705-12.705 7.623 0 12.705 5.081 12.705 12.705v50.819c0 7.621-5.082 12.704-12.705 12.704zM213.463 705.281c-7.623 0-12.705-5.082-12.705-12.704v-50.819c0-7.624 6.352-12.705 12.705-12.705 7.623 0 12.705 5.081 12.705 12.705v50.819c0 7.621-5.082 12.704-12.705 12.704zM268.131 705.281c-7.624 0-12.705-5.082-12.705-12.704v-50.819c0-7.624 6.351-12.705 12.705-12.705 7.621 0 12.702 5.081 12.702 12.705v50.819c0 7.621-5.081 12.704-12.702 12.704zM158.796 562.971c-7.623 0-12.705-5.081-12.705-12.705v-50.818c0-7.624 6.352-12.705 12.705-12.705 7.623 0 12.705 5.081 12.705 12.705v50.818c0 7.624-5.082 12.705-12.705 12.705zM213.463 562.971c-7.623 0-12.705-5.081-12.705-12.705v-50.818c0-7.624 6.352-12.705 12.705-12.705 7.623 0 12.705 5.081 12.705 12.705v50.818c0 7.624-5.082 12.705-12.705 12.705zM268.131 562.971c-7.624 0-12.705-5.081-12.705-12.705v-50.818c0-7.624 6.351-12.705 12.705-12.705 7.621 0 12.702 5.081 12.702 12.705v50.818c0 7.624-5.081 12.705-12.702 12.705zM158.796 420.686c-7.623 0-12.705-5.081-12.705-12.705v-50.819c0-7.621 6.352-12.705 12.705-12.705 7.623 0 12.705 5.083 12.705 12.705v50.819c0 7.624-5.082 12.705-12.705 12.705zM213.463 420.686c-7.623 0-12.705-5.081-12.705-12.705v-50.819c0-7.621 6.352-12.705 12.705-12.705 7.623 0 12.705 5.083 12.705 12.705v50.819c0 7.624-5.082 12.705-12.705 12.705zM268.131 420.686c-7.624 0-12.705-5.081-12.705-12.705v-50.819c0-7.621 6.351-12.705 12.705-12.705 7.621 0 12.702 5.083 12.702 12.705v50.819c0 7.624-5.081 12.705-12.702 12.705zM158.796 277.114c-7.623 0-12.705-5.081-12.705-12.705v-50.818c0-6.354 6.352-12.705 12.705-12.705 7.623 0 12.705 5.081 12.705 12.705v50.818c0 7.624-5.082 12.705-12.705 12.705zM213.463 277.114c-7.623 0-12.705-5.081-12.705-12.705v-50.818c0-6.354 6.352-12.705 12.705-12.705 7.623 0 12.705 5.081 12.705 12.705v50.818c0 7.624-5.082 12.705-12.705 12.705zM268.131 277.114c-7.624 0-12.705-5.081-12.705-12.705v-50.818c0-6.354 6.351-12.705 12.705-12.705 7.621 0 12.702 5.081 12.702 12.705v50.818c0 7.624-5.081 12.705-12.702 12.705zM158.796 134.829c-7.623 0-12.705-5.081-12.705-12.705v-50.819c0-6.351 6.352-12.705 12.705-12.705 7.623 0 12.705 5.083 12.705 12.705v50.819c0 7.624-5.082 12.705-12.705 12.705zM213.463 134.829c-7.623 0-12.705-5.081-12.705-12.705v-50.819c0-6.351 6.352-12.705 12.705-12.705 7.623 0 12.705 5.083 12.705 12.705v50.819c0 7.624-5.082 12.705-12.705 12.705zM268.131 134.829c-7.624 0-12.705-5.081-12.705-12.705v-50.819c0-6.351 6.351-12.705 12.705-12.705 7.621 0 12.702 5.083 12.702 12.705v50.819c0 7.624-5.081 12.705-12.702 12.705zM788.891 705.281c-7.621 0-12.705-5.082-12.705-12.704v-50.819c0-7.624 6.354-12.705 12.705-12.705 7.624 0 12.705 5.081 12.705 12.705v50.819c0 7.621-5.081 12.704-12.705 12.704zM843.558 705.281c-7.621 0-12.705-5.082-12.705-12.704v-50.819c0-7.624 6.354-12.705 12.705-12.705 7.624 0 12.705 5.081 12.705 12.705v50.819c0 7.621-5.081 12.704-12.705 12.704zM898.224 705.281c-7.624 0-12.705-5.082-12.705-12.704v-50.819c0-7.624 6.354-12.705 12.705-12.705 7.624 0 12.705 5.081 12.705 12.705v50.819c0 7.621-5.081 12.704-12.705 12.704zM788.891 562.971c-7.621 0-12.705-5.081-12.705-12.705v-50.818c0-7.624 6.354-12.705 12.705-12.705 7.624 0 12.705 5.081 12.705 12.705v50.818c0 7.624-5.081 12.705-12.705 12.705zM843.558 562.971c-7.621 0-12.705-5.081-12.705-12.705v-50.818c0-7.624 6.354-12.705 12.705-12.705 7.624 0 12.705 5.081 12.705 12.705v50.818c0 7.624-5.081 12.705-12.705 12.705zM898.224 562.971c-7.624 0-12.705-5.081-12.705-12.705v-50.818c0-7.624 6.354-12.705 12.705-12.705 7.624 0 12.705 5.081 12.705 12.705v50.818c0 7.624-5.081 12.705-12.705 12.705zM788.891 420.686c-7.621 0-12.705-5.081-12.705-12.705v-50.819c0-7.621 6.354-12.705 12.705-12.705 7.624 0 12.705 5.083 12.705 12.705v50.819c0 7.624-5.081 12.705-12.705 12.705zM843.558 420.686c-7.621 0-12.705-5.081-12.705-12.705v-50.819c0-7.621 6.354-12.705 12.705-12.705 7.624 0 12.705 5.083 12.705 12.705v50.819c0 7.624-5.081 12.705-12.705 12.705zM898.224 420.686c-7.624 0-12.705-5.081-12.705-12.705v-50.819c0-7.621 6.354-12.705 12.705-12.705 7.624 0 12.705 5.083 12.705 12.705v50.819c0 7.624-5.081 12.705-12.705 12.705zM788.891 277.114c-7.621 0-12.705-5.081-12.705-12.705v-50.818c0-6.354 6.354-12.705 12.705-12.705 7.624 0 12.705 5.081 12.705 12.705v50.818c0 7.624-5.081 12.705-12.705 12.705zM843.558 277.114c-7.621 0-12.705-5.081-12.705-12.705v-50.818c0-6.354 6.354-12.705 12.705-12.705 7.624 0 12.705 5.081 12.705 12.705v50.818c0 7.624-5.081 12.705-12.705 12.705zM898.224 277.114c-7.624 0-12.705-5.081-12.705-12.705v-50.818c0-6.354 6.354-12.705 12.705-12.705 7.624 0 12.705 5.081 12.705 12.705v50.818c0 7.624-5.081 12.705-12.705 12.705zM788.891 134.829c-7.621 0-12.705-5.081-12.705-12.705v-50.819c0-6.351 6.354-12.705 12.705-12.705 7.624 0 12.705 5.083 12.705 12.705v50.819c0 7.624-5.081 12.705-12.705 12.705zM843.558 134.829c-7.621 0-12.705-5.081-12.705-12.705v-50.819c0-6.351 6.354-12.705 12.705-12.705 7.624 0 12.705 5.083 12.705 12.705v50.819c0 7.624-5.081 12.705-12.705 12.705zM898.224 134.829c-7.624 0-12.705-5.081-12.705-12.705v-50.819c0-6.351 6.354-12.705 12.705-12.705 7.624 0 12.705 5.083 12.705 12.705v50.819c0 7.624-5.081 12.705-12.705 12.705zM475.177 705.281c-7.621 0-12.702-5.082-12.702-12.704v-50.819c0-7.624 5.081-12.705 12.702-12.705 7.624 0 12.705 5.081 12.705 12.705v50.819c0 7.621-5.081 12.704-12.705 12.704zM529.843 705.281c-7.621 0-12.705-5.082-12.705-12.704v-50.819c0-7.624 5.083-12.705 12.705-12.705 7.624 0 12.705 5.081 12.705 12.705v50.819c0 7.621-5.081 12.704-12.705 12.704zM583.177 705.281c-7.621 0-12.705-5.082-12.705-12.704v-50.819c0-7.624 6.354-12.705 12.705-12.705 7.624 0 12.705 5.081 12.705 12.705v50.819c0 7.621-5.081 12.704-12.705 12.704zM475.177 562.971c-7.621 0-12.702-5.081-12.702-12.705v-50.818c0-7.624 5.081-12.705 12.702-12.705 7.624 0 12.705 5.081 12.705 12.705v50.818c0 7.624-5.081 12.705-12.705 12.705zM529.843 562.971c-7.621 0-12.705-5.081-12.705-12.705v-50.818c0-7.624 5.083-12.705 12.705-12.705 7.624 0 12.705 5.081 12.705 12.705v50.818c0 7.624-5.081 12.705-12.705 12.705zM583.177 562.971c-7.621 0-12.705-5.081-12.705-12.705v-50.818c0-7.624 6.354-12.705 12.705-12.705 7.624 0 12.705 5.081 12.705 12.705v50.818c0 7.624-5.081 12.705-12.705 12.705zM475.177 847.566c-7.621 0-12.702-5.082-12.702-12.705v-50.819c0-6.352 5.081-12.705 12.702-12.705 7.624 0 12.705 5.082 12.705 12.705v50.819c0 7.623-5.081 12.705-12.705 12.705zM529.843 847.566c-7.621 0-12.705-5.082-12.705-12.705v-50.819c0-6.352 5.083-12.705 12.705-12.705 7.624 0 12.705 5.082 12.705 12.705v50.819c0 7.623-5.081 12.705-12.705 12.705zM583.177 847.566c-7.621 0-12.705-5.082-12.705-12.705v-50.819c0-6.352 6.354-12.705 12.705-12.705 7.624 0 12.705 5.082 12.705 12.705v50.819c0 7.623-5.081 12.705-12.705 12.705zM475.177 420.686c-7.621 0-12.702-5.081-12.702-12.705v-50.819c0-7.621 5.081-12.705 12.702-12.705 7.624 0 12.705 5.083 12.705 12.705v50.819c0 7.624-5.081 12.705-12.705 12.705zM529.843 420.686c-7.621 0-12.705-5.081-12.705-12.705v-50.819c0-7.621 5.083-12.705 12.705-12.705 7.624 0 12.705 5.083 12.705 12.705v50.819c0 7.624-5.081 12.705-12.705 12.705zM583.177 420.686c-7.621 0-12.705-5.081-12.705-12.705v-50.819c0-7.621 6.354-12.705 12.705-12.705 7.624 0 12.705 5.083 12.705 12.705v50.819c0 7.624-5.081 12.705-12.705 12.705zM475.177 277.114c-7.621 0-12.702-5.081-12.702-12.705v-50.818c0-6.354 5.081-12.705 12.702-12.705 7.624 0 12.705 5.081 12.705 12.705v50.818c0 7.624-5.081 12.705-12.705 12.705zM529.843 277.114c-7.621 0-12.705-5.081-12.705-12.705v-50.818c0-6.354 5.083-12.705 12.705-12.705 7.624 0 12.705 5.081 12.705 12.705v50.818c0 7.624-5.081 12.705-12.705 12.705zM583.177 277.114c-7.621 0-12.705-5.081-12.705-12.705v-50.818c0-6.354 6.354-12.705 12.705-12.705 7.624 0 12.705 5.081 12.705 12.705v50.818c0 7.624-5.081 12.705-12.705 12.705zM475.177 134.829c-7.621 0-12.702-5.081-12.702-12.705v-50.819c0-6.351 5.081-12.705 12.702-12.705 7.624 0 12.705 5.083 12.705 12.705v50.819c0 7.624-5.081 12.705-12.705 12.705zM529.843 134.829c-7.621 0-12.705-5.081-12.705-12.705v-50.819c0-6.351 5.083-12.705 12.705-12.705 7.624 0 12.705 5.083 12.705 12.705v50.819c0 7.624-5.081 12.705-12.705 12.705zM583.177 134.829c-7.621 0-12.705-5.081-12.705-12.705v-50.819c0-6.351 6.354-12.705 12.705-12.705 7.624 0 12.705 5.083 12.705 12.705v50.819c0 7.624-5.081 12.705-12.705 12.705z" />
<glyph unicode="&#xe924;" glyph-name="culture" d="M934.514 601.506c33.413 74.836 19.468 165.688-41.936 227.097s-152.253 75.354-227.083 41.94l-89.454 89.458-576.007-576.043 89.454-89.459c-33.418-74.836-19.468-165.692 41.936-227.096 61.403-61.41 152.248-75.355 227.082-41.943l89.454-89.46 576.007 576.043-89.454 89.464zM394.23 394.284c-27.898-27.9-73.128-27.9-101.026 0s-27.898 73.133 0 101.033c27.898 27.9 73.128 27.9 101.026 0 27.9-27.9 27.9-73.133 0-101.033zM504.165 206.663l-50.737 475.595 66.399 7.086 50.738-475.596-66.4-7.085zM731.198 400.281c-27.903-27.9-73.128-27.9-101.029 0-27.898 27.9-27.898 73.133 0 101.032 27.901 27.9 73.126 27.9 101.029 0 27.897-27.9 27.897-73.133 0-101.032zM628.292 869.628l226.055-397.126-490.849-448.19-261.428 286.341 526.222 558.975z" />
<glyph unicode="&#xe925;" glyph-name="education" d="M1007.975 98.539l-50.298-27.423c-111.331-59.786-243.121-59.768-354.441 0.066l-66.217 36.087v762.441l43.252-23.577c125.746-67.602 274.609-67.622 400.376-0.052 9.187 5.052 20.211 4.681 29.074-0.982s14.278-15.786 14.278-26.708v-692.121c0.030-11.675-6.157-22.387-16.025-27.73zM66.216 71.182l-50.203 27.357c-9.855 5.343-16.042 16.055-16.013 27.73v692.121c0 10.9 5.393 21.014 14.228 26.677 8.835 5.673 19.836 6.075 29.024 1.064 125.745-67.602 274.622-67.622 400.376-0.052l43.35 23.629v-762.441l-66.324-36.153c-111.331-59.786-243.116-59.768-354.438 0.066z" />
<glyph unicode="&#xe926;" glyph-name="food" d="M716.788 650.662l-13.647 309.338h-68.269l-13.647-309.338h-54.621l-13.647 309.338h-81.916l-13.647-309.338h-54.621l-13.647 309.338h-68.269l-13.647-309.338c0-65.075 49.921-120.82 121.383-145.829l-25.82-483.498c0-47.127 48.903-85.336 109.227-85.336s109.227 38.209 109.227 85.336l-25.819 483.498c71.462 25.010 121.382 80.755 121.382 145.829z" />
<glyph unicode="&#xe927;" glyph-name="handshake" d="M256.037 606.755c-1.867-0.033-3.724 0.303-5.461 0.989-1.739 0.686-3.325 1.708-4.669 3.009-2.714 2.625-4.275 6.225-4.341 10.004-0.068 3.779 1.368 7.431 3.989 10.151 2.62 2.719 6.212 4.284 9.984 4.35 69.782 0.781 139.415 6.689 208.336 17.673 1.225 0.257 2.478 0.342 3.727 0.257 17.276-0.915 34.036-6.211 48.709-15.391 2.424-1.764 4.228-4.25 5.16-7.103 0.93-2.853 0.938-5.928 0.022-8.785s-2.708-5.353-5.123-7.13c-2.414-1.776-5.326-2.744-8.322-2.764-3.349 0-6.597 1.152-9.201 3.264-9.587 5.506-20.326 8.693-31.36 9.306-69.844-10.996-140.387-16.955-211.081-17.829h-0.371zM776.262 267.704c-12.134-0.015-23.959 3.828-33.777 10.975l-3.057 2.123c-0.399 0.27-1.067 0.813-1.692 1.425l-167.407 120.812c-1.562 1.069-2.896 2.44-3.925 4.033s-1.728 3.373-2.059 5.24c-0.331 1.867-0.289 3.781 0.128 5.631 0.415 1.85 1.195 3.598 2.295 5.142s2.493 2.853 4.103 3.85 3.401 1.662 5.272 1.956c1.868 0.294 3.778 0.211 5.616-0.243 1.837-0.456 3.565-1.274 5.082-2.406l11.377-8.123 156.654-113.203c0.469-0.337 0.915-0.703 1.338-1.099l2.716-1.895c6.169-4.431 13.8-6.32 21.318-5.278s14.351 4.937 19.086 10.879c2.907 3.675 4.887 7.998 5.777 12.601 0.889 4.604 0.659 9.355-0.671 13.851-1.597 5.664-4.9 10.695-9.458 14.408l-223.911 182.808c-85.742-45.605-146.485-22.147-175.483-3.578-4.792 3.126-8.684 7.456-11.285 12.558s-3.823 10.8-3.542 16.523c0.28 5.723 2.053 11.273 5.142 16.095 3.087 4.823 7.384 8.75 12.459 11.39l128.167 68.209c8.181 4.288 17.129 6.912 26.325 7.719 9.198 0.807 18.463-0.218 27.264-3.017l75.816-24.655c22.321-7.358 46.53-6.483 68.265 2.466l33.023 13.552c1.728 0.711 3.579 1.073 5.448 1.067 1.867-0.008 3.717-0.383 5.44-1.105 1.723-0.724 3.287-1.78 4.603-3.108 1.317-1.328 2.359-2.903 3.068-4.636s1.071-3.587 1.062-5.459c-0.006-1.872-0.381-3.725-1.101-5.452s-1.775-3.295-3.1-4.614c-1.327-1.32-2.898-2.364-4.626-3.075l-32.996-13.538c-27.988-11.545-59.172-12.677-87.92-3.192l-75.744 24.641c-5.189 1.633-10.648 2.222-16.065 1.733-5.415-0.489-10.681-2.047-15.494-4.584l-128.196-68.223c-0.714-0.336-1.32-0.865-1.751-1.527-0.433-0.663-0.672-1.431-0.694-2.222-0.060-0.714 0.080-1.431 0.4-2.073 0.322-0.641 0.813-1.182 1.421-1.561 29.866-19.126 81.135-33.15 154.534 9.107 2.497 1.437 5.37 2.081 8.239 1.847s5.602-1.334 7.832-3.158l231.249-188.837c9.068-7.331 15.664-17.284 18.886-28.504 2.555-8.831 2.983-18.142 1.253-27.172-1.732-9.031-5.572-17.521-11.209-24.775-5.37-6.965-12.265-12.603-20.154-16.474s-16.559-5.876-25.342-5.86zM717.435 201.648c-12.052-0.013-23.81 3.738-33.635 10.731l-153.74 109.311c-3.003 2.214-5.020 5.523-5.612 9.212-0.594 3.69 0.283 7.465 2.44 10.513s5.425 5.125 9.095 5.784c3.671 0.657 7.454-0.157 10.532-2.265l153.74-109.295c6.449-4.221 14.279-5.783 21.851-4.356s14.299 5.729 18.778 12.010c4.481 6.281 6.366 14.054 5.261 21.694-1.106 7.642-5.114 14.559-11.189 19.307l-153.227 110.665c-2.825 2.29-4.667 5.575-5.151 9.184-0.484 3.607 0.428 7.263 2.55 10.218 2.122 2.956 5.291 4.985 8.858 5.673s7.262-0.017 10.326-1.973l153.27-110.679c9.976-7.238 17.41-17.457 21.234-29.19s3.842-24.378 0.052-36.122c-3.789-11.744-11.193-21.983-21.149-29.25s-21.953-11.189-34.269-11.203l-0.014 0.029zM650.983 144.543c-11.448 0.003-22.619 3.52-32.012 10.076l-137.768 95.63c-3.103 2.151-5.224 5.452-5.9 9.171-0.675 3.722 0.153 7.558 2.302 10.666s5.44 5.236 9.152 5.912c3.712 0.675 7.542-0.155 10.643-2.307l137.768-95.63c3.027-2.097 6.434-3.577 10.029-4.353 3.596-0.779 7.311-0.836 10.929-0.175 3.619 0.663 7.071 2.031 10.162 4.031s5.758 4.59 7.848 7.623c4.162 6.080 5.779 13.552 4.503 20.814s-5.344 13.732-11.329 18.021l-137.099 97.454c-1.559 1.067-2.89 2.436-3.915 4.025s-1.725 3.367-2.058 5.229c-0.331 1.862-0.291 3.773 0.122 5.62 0.411 1.847 1.186 3.592 2.278 5.135 1.094 1.543 2.481 2.853 4.084 3.853s3.388 1.67 5.253 1.971c1.865 0.3 3.77 0.227 5.606-0.219 1.836-0.443 3.564-1.25 5.084-2.371l137.101-97.454c12.066-8.642 20.271-21.684 22.847-36.322s-0.678-29.705-9.067-41.963c-4.192-6.126-9.555-11.359-15.776-15.396-6.223-4.036-13.181-6.795-20.476-8.119-3.402-0.623-6.854-0.933-10.312-0.926zM569.801 97.691c-9.951 0.048-19.715 2.712-28.315 7.725l-76.471 44.181c-3.241 1.903-5.597 5.014-6.557 8.653-0.959 3.637-0.445 7.509 1.432 10.768s4.967 5.641 8.59 6.628c3.625 0.986 7.492 0.496 10.756-1.363l76.457-44.181c6.463-3.656 14.097-4.636 21.272-2.73 7.174 1.908 13.322 6.548 17.127 12.934 3.616 6.12 4.766 13.393 3.214 20.335s-5.686 13.027-11.562 17.020l-97.704 67.823c-1.536 1.067-2.847 2.425-3.858 3.998s-1.703 3.331-2.038 5.174c-0.332 1.84-0.302 3.731 0.094 5.559 0.395 1.83 1.147 3.562 2.21 5.101s2.42 2.852 3.99 3.865 3.324 1.708 5.161 2.040c1.837 0.334 3.724 0.303 5.548-0.094 1.826-0.395 3.556-1.148 5.091-2.214l97.69-67.809c9.918-6.881 17.383-16.754 21.311-28.183s4.111-23.814 0.525-35.354c-3.587-11.54-10.758-21.631-20.466-28.803s-21.449-11.051-33.511-11.071h0.014zM408.681 106.192c-11.633-0.017-22.998 3.524-32.572 10.148s-16.904 16.019-21.010 26.928c-4.104 10.91-4.792 22.814-1.967 34.125s9.026 21.49 17.776 29.175l37.987 33.348c5.645 4.967 12.21 8.77 19.323 11.193s14.631 3.42 22.126 2.931c7.497-0.488 14.823-2.452 21.562-5.777s12.758-7.949 17.714-13.607c4.955-5.658 8.75-12.237 11.167-19.364s3.409-14.662 2.921-22.174c-0.488-7.511-2.448-14.852-5.769-21.605s-7.935-12.784-13.58-17.749l-37.987-33.42c-10.426-9.155-23.826-14.187-37.689-14.152zM446.612 225.665c-6.974 0.017-13.717-2.516-18.958-7.126l-38.001-33.392c-2.839-2.495-5.16-5.528-6.828-8.922-1.67-3.395-2.656-7.086-2.903-10.862s0.251-7.563 1.467-11.147c1.214-3.582 3.122-6.892 5.612-9.737 5.029-5.745 12.13-9.253 19.742-9.751 3.768-0.247 7.548 0.253 11.124 1.47s6.878 3.128 9.716 5.623l37.986 33.42c4.382 3.865 7.486 8.976 8.898 14.652s1.067 11.649-0.993 17.124c-2.058 5.473-5.731 10.19-10.529 13.522-4.8 3.331-10.496 5.119-16.334 5.126zM322.594 145.011c-1.265 0-2.531 0-3.796 0.114-7.501 0.471-14.834 2.426-21.577 5.752s-12.758 7.959-17.705 13.63c-5.023 5.658-8.882 12.254-11.354 19.412-2.473 7.155-3.512 14.732-3.056 22.291s2.397 14.954 5.712 21.762c3.316 6.806 7.939 12.889 13.606 17.899l63.458 55.824c5.645 4.967 12.21 8.77 19.323 11.193s14.631 3.42 22.127 2.931c7.496-0.488 14.822-2.452 21.562-5.777 6.739-3.326 12.757-7.949 17.713-13.607l-10.282-9.876 10.681 9.405c4.958-5.656 8.754-12.235 11.173-19.362 2.42-7.126 3.414-14.662 2.928-22.174-0.488-7.512-2.448-14.854-5.767-21.608-3.32-6.752-7.935-12.784-13.582-17.749l-63.516-55.824c-10.392-9.195-23.783-14.258-37.645-14.238zM385.526 287.445c-6.965 0.019-13.698-2.516-18.929-7.126l-63.458-55.824c-4.249-3.845-7.276-8.856-8.704-14.41s-1.194-11.407 0.672-16.83c1.865-5.423 5.281-10.176 9.822-13.668s10.006-5.569 15.716-5.972c3.772-0.258 7.555 0.237 11.134 1.462 3.577 1.223 6.875 3.149 9.701 5.664l63.458 55.825c2.841 2.495 5.161 5.528 6.831 8.923 1.668 3.395 2.654 7.088 2.901 10.865 0.245 3.776-0.255 7.565-1.47 11.149-1.216 3.582-3.125 6.892-5.617 9.737l-0.413 0.471c-2.481 2.834-5.498 5.149-8.876 6.809s-7.051 2.634-10.806 2.867c-0.669 0.028-1.338 0.043-1.978 0.043l0.014 0.014zM250.824 197.332c-1.251 0-2.517 0-3.796 0.114-7.501 0.471-14.834 2.425-21.576 5.752-6.743 3.326-12.76 7.959-17.705 13.629l-1.55 1.853c-9.997 11.428-15.057 26.364-14.068 41.528 0.991 15.163 7.948 29.313 19.344 39.337l73.57 64.718c5.643 4.969 12.209 8.773 19.321 11.198s14.632 3.422 22.128 2.933c7.496-0.488 14.823-2.452 21.562-5.779s12.757-7.951 17.713-13.609l1.606-1.839c9.999-11.426 15.061-26.363 14.072-41.528s-7.949-29.314-19.349-39.337l-73.57-64.718c-10.406-9.21-23.819-14.28-37.703-14.252zM322.687 349.998c-6.965 0.017-13.698-2.517-18.929-7.126l-73.571-64.718c-5.737-5.045-9.242-12.167-9.74-19.8s2.048-15.153 7.081-20.904l1.608-1.837c5.036-5.735 12.138-9.233 19.746-9.724s15.099 2.062 20.829 7.102l73.57 64.719c2.841 2.495 5.161 5.528 6.831 8.923s2.654 7.088 2.901 10.865c0.245 3.776-0.255 7.565-1.47 11.149-1.216 3.582-3.124 6.892-5.616 9.737l-1.58 1.81c-2.482 2.847-5.506 5.17-8.892 6.839s-7.068 2.648-10.834 2.881c-0.669 0.056-1.294 0.086-1.934 0.086zM189.027 260.764c-1.251 0-2.531 0-3.798 0.128-11.361 0.717-22.254 4.794-31.303 11.713s-15.848 16.373-19.538 27.165c-3.69 10.792-4.104 22.436-1.191 33.464s9.023 20.941 17.558 28.489l46.065 40.518c5.643 4.969 12.21 8.773 19.321 11.198 7.112 2.425 14.632 3.42 22.128 2.933 7.497-0.489 14.823-2.453 21.562-5.779s12.757-7.951 17.713-13.61l0.497-0.571c4.958-5.656 8.754-12.235 11.175-19.362 2.419-7.127 3.414-14.662 2.926-22.174s-2.447-14.856-5.767-21.608c-3.32-6.752-7.935-12.784-13.582-17.749l-46.065-40.518c-10.406-9.205-23.819-14.271-37.701-14.237zM234.537 387.988c-6.966 0.019-13.698-2.516-18.93-7.125l-46.065-40.518c-2.839-2.497-5.16-5.529-6.829-8.925s-2.656-7.088-2.901-10.864c-0.245-3.778 0.255-7.567 1.47-11.149 1.216-3.584 3.124-6.893 5.616-9.737 2.473-2.935 5.501-5.349 8.913-7.1 3.409-1.753 7.132-2.81 10.954-3.11 3.821-0.3 7.662 0.165 11.303 1.363s7.008 3.111 9.904 5.623l46.065 40.518c2.841 2.497 5.161 5.529 6.831 8.925 1.668 3.395 2.654 7.088 2.901 10.864 0.245 3.778-0.255 7.565-1.47 11.149s-3.125 6.893-5.617 9.737l-0.497 0.571c-2.484 2.85-5.509 5.178-8.896 6.849-3.388 1.67-7.075 2.652-10.844 2.884-0.697 0.014-1.336 0.042-1.976 0.042h0.072zM163.261 339.514c-3.078-0.006-6.074 0.995-8.533 2.852l-48.597 37.055c-1.487 1.133-2.736 2.548-3.676 4.166s-1.554 3.404-1.806 5.259c-0.251 1.854-0.136 3.74 0.339 5.551 0.476 1.81 1.303 3.508 2.433 4.998 2.284 3.008 5.667 4.984 9.405 5.494 1.851 0.251 3.733 0.136 5.539-0.34s3.501-1.305 4.987-2.439l48.596-37.055c2.394-1.798 4.161-4.309 5.048-7.171 0.889-2.864 0.853-5.936-0.102-8.777s-2.781-5.309-5.215-7.051-5.358-2.67-8.349-2.653l-0.072 0.114zM818.010 323.715c-2.813 0.001-5.561 0.837-7.9 2.403-2.337 1.567-4.161 3.792-5.236 6.397-1.077 2.604-1.357 5.468-0.809 8.232s1.902 5.303 3.89 7.297l79.799 79.996c2.682 2.595 6.275 4.033 10.004 4 3.728-0.033 7.297-1.531 9.932-4.173 2.638-2.644 4.133-6.219 4.166-9.954 0.033-3.738-1.402-7.337-3.992-10.024l-79.799-79.968c-1.319-1.328-2.884-2.383-4.609-3.104-1.727-0.721-3.577-1.095-5.446-1.1zM926.859 353.291c-2.433-0.003-4.824 0.619-6.948 1.806s-3.909 2.901-5.183 4.978l-173.651 283.040c-1.834 2.993-2.502 6.562-1.87 10.018 0.629 3.457 2.511 6.557 5.284 8.709l171.985 133.483c1.889 1.465 4.113 2.431 6.472 2.807s4.773 0.151 7.022-0.653c2.25-0.805 4.259-2.164 5.845-3.953 1.588-1.789 2.698-3.949 3.233-6.281l84.578-369.792c0.703-3.009 0.409-6.166-0.834-8.991-1.245-2.828-3.372-5.175-6.062-6.684l-82.928-46.704c-2.122-1.182-4.512-1.796-6.94-1.781zM771.997 647.162l159.798-260.452 61.738 34.774-77.226 337.654-144.31-111.976zM97.153 348.234c-2.436 0.001-4.83 0.629-6.955 1.825l-82.928 46.632c-2.69 1.511-4.817 3.856-6.062 6.684s-1.537 5.984-0.835 8.993l84.592 369.748c0.534 2.332 1.645 4.493 3.232 6.281s3.596 3.148 5.845 3.953c2.249 0.805 4.663 1.030 7.022 0.653s4.584-1.342 6.472-2.807l171.999-133.468c2.773-2.15 4.655-5.252 5.286-8.709 0.629-3.456-0.037-7.024-1.872-10.018l-173.664-283.040c-1.282-2.065-3.068-3.768-5.192-4.946s-4.512-1.791-6.939-1.783zM30.481 416.33l61.737-34.759 159.797 260.465-144.31 111.977-77.225-337.683z" />
<glyph unicode="&#xe928;" glyph-name="housePersantage" d="M897.592-3.253h-771.221c-8.867 0-16.001 7.067-16.001 15.853v486.173c0 8.785 7.133 15.855 16.001 15.855s16.001-7.069 16.001-15.855v-470.32h739.219v470.32c0 8.785 7.133 15.855 16.001 15.855s16.001-7.069 16.001-15.855v-486.173c0-8.785-7.201-15.853-16.001-15.853zM974.524 431.791c-11 0-21.6 3.633-30.4 10.504l-432.144 336.885-432.145-336.885c-21.4-16.647-52.468-13.014-69.268 8.19-8.133 10.238-11.8 23.054-10.2 36.001 1.533 12.945 8.133 24.572 18.467 32.631l483.28 376.718c5.8 4.558 13.999 4.558 19.8 0l483.28-376.718c21.399-16.647 25.067-47.429 8.266-68.632-8.133-10.238-19.867-16.778-32.935-18.298-2-0.264-3.999-0.396-6-0.396zM511.979 815.182c3.466 0 7-1.123 9.867-3.369l442.079-344.549c3.666-2.84 8.199-4.096 12.8-3.566 4.599 0.527 8.733 2.84 11.601 6.408 5.932 7.463 4.599 18.297-2.935 24.109l-473.411 368.991-473.413-368.991c-3.667-2.84-5.933-6.936-6.467-11.493s0.733-9.050 3.6-12.682c5.933-7.465 16.8-8.72 24.334-2.907l442.079 344.549c2.866 2.378 6.4 3.501 9.867 3.501zM814.997 631.343c-8.867 0-16.001 7.069-16.001 15.853v182.25h-79.336v-95.451c0-8.785-7.133-15.853-16.001-15.853s-16.001 7.067-16.001 15.853v111.305c0 8.785 7.133 15.853 16.001 15.853h111.337c8.867 0 16.001-7.068 16.001-15.853v-198.103c0-8.784-7.133-15.853-16.001-15.853zM342.922 128.26c-4.132 0-8.201 1.586-11.333 4.691-6.267 6.208-6.199 16.249 0 22.393l338.276 334.244c6.267 6.208 16.399 6.143 22.6 0 6.266-6.21 6.199-16.25 0-22.393l-338.276-334.244c-3.067-3.171-7.201-4.691-11.267-4.691zM402.118 326.625c-0.066 0-0.066 0-0.134 0-52.401 0.066-95.001 42.407-94.936 94.328 0 25.168 9.934 48.816 27.935 66.584 17.934 17.769 41.802 27.48 67.135 27.48h0.134c25.4 0 49.268-9.843 67.202-27.678s27.801-41.483 27.733-66.651v0c0-25.168-9.933-48.816-27.933-66.584-17.934-17.769-41.802-27.48-67.137-27.48zM402.118 483.311c-16.8 0-32.6-6.474-44.534-18.232s-18.535-27.48-18.535-44.192c-0.066-34.481 28.201-62.554 63.002-62.554h0.066c16.8 0 32.668 6.472 44.535 18.231 11.934 11.759 18.533 27.48 18.533 44.192s-6.532 32.367-18.399 44.192c-11.868 11.824-27.735 18.364-44.601 18.364h-0.067zM621.983 107.438c-0.066 0-0.066 0-0.134 0-52.401 0.066-95.003 42.407-94.936 94.328 0.066 25.168 9.933 48.816 27.935 66.584 17.934 17.769 41.8 27.48 67.135 27.48h0.134c52.401-0.066 95.003-42.407 94.936-94.328v0c-0.066-25.168-9.933-48.816-27.935-66.584-17.934-17.703-41.8-27.48-67.135-27.48zM621.983 264.122c-16.8 0-32.601-6.472-44.535-18.231-11.932-11.759-18.533-27.48-18.533-44.192-0.067-34.481 28.2-62.554 63.002-62.554h0.066c16.8 0 32.601 6.472 44.534 18.231s18.535 27.48 18.535 44.192c0.067 34.481-28.2 62.554-63.002 62.554h-0.066z" />
<glyph unicode="&#xe929;" glyph-name="map" d="M580.852 109.839c-1.839-5.932-7.305-9.745-13.214-9.745-1.353 0-2.738 0.203-4.101 0.627-17.335 5.378-34.648 10.937-51.916 16.479-21.262 6.827-42.442 13.624-63.468 20.022-7.317 2.226-11.432 9.955-9.209 17.267 2.226 7.324 10.001 11.435 17.261 9.211 21.163-6.437 42.479-13.28 63.873-20.149 17.182-5.512 34.416-11.045 51.658-16.396 7.298-2.265 11.377-10.018 9.116-17.316zM756.041 86.058c-33.514 2.811-70.522 9.548-113.144 20.592-7.388 1.914-14.953-2.524-16.864-9.926-1.919-7.4 2.533-14.951 9.928-16.869 44.145-11.442 82.676-18.432 117.775-21.375 0.388-0.032 0.785-0.049 1.172-0.049 7.117 0 13.161 5.459 13.773 12.683 0.632 7.616-5.018 14.309-12.639 14.944zM383.637 183.789c-44.874 10.837-83.622 16.435-118.442 17.123-0.090 0.002-0.18 0.002-0.281 0.002-7.514 0-13.675-6.017-13.827-13.568-0.144-7.639 5.927-13.954 13.568-14.104 32.793-0.646 69.585-5.995 112.477-16.354 1.1-0.266 2.192-0.392 3.262-0.392 6.244 0 11.91 4.257 13.444 10.593 1.79 7.431-2.78 14.909-10.201 16.701zM342.275 675.024c0 91.635 74.55 166.184 166.181 166.184 91.641 0 166.19-74.55 166.19-166.184 0-91.636-74.55-166.186-166.19-166.186-91.631 0-166.181 74.55-166.181 166.186zM369.953 675.024c0-76.376 62.135-138.51 138.503-138.51 76.378 0 138.513 62.135 138.513 138.51 0 76.373-62.135 138.509-138.513 138.509-76.368 0-138.503-62.136-138.503-138.509zM1017.817-58.297c-2.604-3.581-6.765-5.703-11.198-5.703h-989.237c-4.432 0-8.594 2.123-11.198 5.703-2.604 3.586-3.334 8.197-1.964 12.41l168.56 518.771c1.856 5.701 7.172 9.562 13.162 9.562h111.588l-2.994 4.437c-35.145 52.068-71.064 115.139-71.064 188.135 0 157.14 127.846 284.983 284.982 284.983 157.133 0 284.982-127.842 284.982-284.983 0-73.009-35.918-136.075-71.053-188.135l-2.994-4.437h118.67c5.992 0 11.306-3.86 13.161-9.562l168.56-518.771c1.37-4.213 0.639-8.823-1.963-12.41zM828.005 454.77h-17.233c-6.013-15.021-6.359-31.875-0.748-47.119 1.756-4.762 0.766-10.099-2.587-13.909-16.693-19.032-21.029-45.361-11.289-68.713 6.19-14.833 17.559-26.856 32.020-33.85 4.405-2.131 7.358-6.437 7.766-11.32 0.558-6.839 2.199-13.537 4.857-19.919 10.886-26.075 36.455-41.697 63.639-40.375l-76.424 235.206zM317.472 502.36l190.984-283.007 190.991 283.007c34.441 51.042 66.316 107.284 66.316 172.658 0 141.879-115.424 257.306-257.307 257.306s-257.307-115.428-257.307-257.306c0-65.363 31.873-121.612 66.323-172.658zM36.429-36.322h242.182c-9.506 28.37-37.381 47.26-68.21 44.454-5.136-0.468-9.955 1.878-12.766 6.1-14.072 21.058-38.396 32.046-63.451 28.684-15.927-2.136-30.478-10.006-40.972-22.162-3.208-3.713-8.099-5.478-12.954-4.571-8.927 1.619-18.178 1.236-27.054-0.88l-16.776-51.625zM987.573-36.322l-41.957 129.129c-36.191-18.934-74.754-30.239-117.629-34.287-0.441-0.046-0.883-0.066-1.317-0.066-7.053 0-13.083 5.371-13.756 12.537-0.72 7.609 4.864 14.36 12.478 15.078 40.855 3.86 77.383 14.873 111.54 33.46l-23.742 73.069c-4.049-0.526-8.087-0.836-12.086-0.836-36.937-0.005-71.009 21.935-85.858 57.522-2.772 6.661-4.764 13.571-5.944 20.636-17.309 10.21-30.901 25.766-38.702 44.459-12.793 30.698-8.487 65.012 11.008 91.375-4.374 16.065-4.271 33.022 0.058 49.018h-80.955l-180.789-267.895c-2.568-3.816-6.873-6.1-11.467-6.1-4.596 0-8.901 2.284-11.469 6.1l-180.78 267.895h-120.213l-98.074-301.839c27.986 19.732 58.408 33.312 92.182 40.877 7.478 1.665 14.864-3.028 16.532-10.482 1.666-7.455-3.028-14.858-10.478-16.53-43.342-9.704-80.698-30.318-114.192-62.968l-19.24-59.212c4.94 0.309 9.896 0.334 14.818-0.146 14.342 14.083 32.882 23.184 52.964 25.878 32.954 4.413 64.972-8.599 85.406-34.268 0.208 0.005 0.406 0.005 0.612 0.005 43.47 0 81.116-30.023 90.815-72.409h680.231z" />
<glyph unicode="&#xe92a;" glyph-name="medicine" d="M672.655-64h-321.311c-16.567 0-29.998 13.432-29.998 30.001v291.335h-291.315c-16.567 0-29.998 13.432-29.998 30.001v321.33c0 16.568 13.431 30 29.998 30h291.315v291.334c0 16.568 13.431 30 29.998 30h321.311c16.569 0 30.001-13.432 30.001-30v-291.334h291.309c16.569 0 30.001-13.432 30.001-30v-321.33c0-16.569-13.432-30.001-30.001-30.001h-291.309v-291.335c0-16.569-13.432-30.001-30.001-30.001z" />
<glyph unicode="&#xe92b;" glyph-name="planning" d="M1002.666 917.33h-981.33c-11.776 0-21.334-9.558-21.334-21.334v-554.666c0-11.776 9.558-21.333 21.334-21.333h341.331c11.776 0 21.336 9.557 21.336 21.333v85.336c0 11.776-9.56 21.333-21.336 21.333s-21.333-9.557-21.333-21.333v-64h-298.667v511.996h298.664v-10.666c0-11.776 9.56-21.334 21.336-21.334s21.333 9.558 21.333 21.334v10.666h597.332v-255.999h-405.332c-11.776 0-21.333-9.557-21.333-21.333v-85.333c0-11.776 9.557-21.333 21.333-21.333s21.333 9.557 21.333 21.333v64h383.999v-341.332h-277.333c-11.776 0-21.333-9.557-21.333-21.333v-191.999h-639.999v64c0 11.776-9.558 21.333-21.334 21.333s-21.332-9.557-21.332-21.333v-85.333c0-11.776 9.558-21.333 21.334-21.333h682.664c11.776 0 21.333 9.557 21.333 21.333v191.999h277.335c11.773 0 21.333 9.557 21.333 21.333v682.666c-0.003 11.776-9.56 21.334-21.336 21.334zM362.668 695.453c11.776 0 21.333 9.514 21.333 21.334v49.066c0 11.776-9.557 21.334-21.333 21.334s-21.333-9.514-21.333-21.334v-49.066c0.003-11.818 9.557-21.334 21.333-21.334zM320.002 618.66c-11.776 0-21.333-9.557-21.333-21.333s9.557-21.33 21.333-21.33h42.667c11.776 0 21.333 9.557 21.333 21.333v21.333c0 11.776-9.557 21.333-21.333 21.333s-21.333-9.557-21.333-21.333l-21.333-0.003zM192.003 618.663c-11.776 0-21.334-9.56-21.334-21.336s9.558-21.33 21.334-21.33h42.666c11.776 0 21.333 9.557 21.333 21.333s-9.557 21.333-21.333 21.333h-42.666zM64.003 575.997h42.666c11.776 0 21.334 9.557 21.334 21.333s-9.558 21.333-21.334 21.333h-42.666c-11.776 0-21.334-9.557-21.334-21.333s9.558-21.333 21.334-21.333z" />
<glyph unicode="&#xe92c;" glyph-name="transport" d="M64.026 205.474c0-48.502 22.398-91.623 55.997-118.565v-97.012c0-32.337 22.398-53.897 55.997-53.897h55.997c33.598 0 55.997 21.56 55.997 53.897v53.891h447.971v-53.891c0-32.337 22.398-53.897 55.997-53.897h55.997c33.598 0 55.997 21.56 55.997 53.897v97.012c33.598 26.942 55.997 70.057 55.997 118.565v538.947c0 188.631-201.587 215.579-447.971 215.579s-447.971-26.948-447.971-215.579v-538.947zM260.014 151.583c-44.797 0-83.995 37.726-83.995 80.839s39.197 80.839 83.995 80.839c44.797 0 83.995-37.726 83.995-80.839s-39.197-80.839-83.995-80.839zM763.981 151.583c-44.797 0-83.995 37.726-83.995 80.839s39.197 80.839 83.995 80.839c44.797 0 83.995-37.726 83.995-80.839s-39.197-80.839-83.995-80.839zM847.975 474.948h-671.957v269.473h671.957v-269.473z" />
<glyph unicode="&#xe92d;" glyph-name="projectArrow" d="M232.426 850.625l-20.477-19.127 410.564-383.498-410.564-383.497 94.756-88.503 505.357 472-505.357 472-74.278-69.375z" />
<glyph unicode="&#xe92e;" glyph-name="shop" d="M1015.257 645.638c-3.317 3.898-7.447 7.030-12.112 9.176-4.659 2.147-9.739 3.256-14.877 3.253h-158.755l-1.411 9.978c-9.569 65.223-42.451 124.857-92.644 168.018s-114.353 66.969-180.767 67.079h-70.558c-66.092-0.2-129.884-24.107-179.612-67.313s-82.039-102.796-90.977-167.785l-1.411-9.978h-176.393c-5.14 0.004-10.217-1.106-14.879-3.253s-8.795-5.279-12.11-9.176c-3.429-3.882-5.951-8.47-7.385-13.433s-1.743-10.18-0.906-15.275l94.018-530.413c4.812-26.374 18.84-50.228 39.616-67.351 20.777-17.129 46.971-26.442 73.981-26.306h607.85c26.948-0.006 53.037 9.387 73.705 26.539 20.674 17.152 34.605 40.971 39.367 67.294l94.544 530.236c0.836 5.095 0.529 10.312-0.905 15.275s-3.953 9.551-7.385 13.433zM300.333 658.066l1.235 7.177c7.918 42.291 30.518 80.492 63.871 107.963s75.353 42.476 118.696 42.408h70.558c43.636 0.074 85.95-14.873 119.72-42.293 33.775-27.42 56.923-65.617 65.496-108.078l1.411-7.177h-440.986z" />
<glyph unicode="&#xe92f;" glyph-name="sport" d="M336.549 398.404l224.98 224.994 125.779-125.784-224.983-224.997-125.775 125.787zM246.952 402.909c-14.223 14.223-33.134 22.056-53.249 22.056-20.113 0-39.026-7.833-53.249-22.056l-118.367-118.369c-29.36-29.362-29.36-77.136 0-106.497l219.985-219.983c14.224-14.226 33.134-22.060 53.248-22.060 20.115 0 39.026 7.833 53.25 22.060l118.369 118.368c29.36 29.362 29.36 77.136-0.002 106.497l-219.984 219.983zM781.928 937.946c-14.226 14.222-33.138 22.054-53.252 22.054s-39.025-7.832-53.246-22.056l-118.371-118.369c-29.36-29.362-29.36-77.137 0-106.496l219.986-219.986c14.226-14.224 33.138-22.056 53.252-22.056 20.108 0 39.025 7.832 53.246 22.056l118.368 118.367c29.362 29.362 29.362 77.137 0 106.498l-219.983 219.988z" />
</font>
</defs>
</svg>
